<svg xmlns="http://www.w3.org/2000/svg" width="1199" height="817" viewBox="0 0 1199 817">
  <g id="Group_409" data-name="Group 409" transform="translate(-81 -1)">
    <path id="Path_27" data-name="Path 27" d="M687.55,157.332c14.734,73.168,31.612,115.05,86.559,132.009,71.255,21.993,71.961,157.407-27.338,170.228-51.922,6.7-87.251-5.861-115.62,29.346-50.592,62.8-89.313,15.345-96.5-13.744C508.055,367.625,445.333,396.794,398.174,337.4c-27.772-34.963-.611-74.959,51.067-84.266,78.921-14.2,97.467-60.239,103.776-82.326C568.253,117.485,672.816,84.15,687.55,157.332Z" transform="translate(151.908 182.912)" fill="none" stroke="rgba(187,6,77,0.64)" stroke-miterlimit="10" stroke-width="1" opacity="0.5"/>
    <path id="Intersection_1" data-name="Intersection 1" d="M1140.291,820.369c-207.7-27.476-251.167-69.236-237.919-195.79s136.647-143.316-29.571-281.35C749.455,240.8,528.253,161.2,581.62,49.757H1416.5V731.316c-14.972,20.559-77.692,93.08-217.207,93.087A449.487,449.487,0,0,1,1140.291,820.369Z" transform="translate(-137 -48.257)" stroke="#000" stroke-width="1" opacity="0.98"/>
    <circle id="Ellipse_5" data-name="Ellipse 5" cx="43.5" cy="43.5" r="43.5" transform="translate(81 263)" fill="#eb9ab7" opacity="0.22"/>
    <g id="Ellipse_6" data-name="Ellipse 6" transform="translate(476 680)" fill="none" stroke="#d5d5e5" stroke-width="9" opacity="0.22">
      <circle cx="19.5" cy="19.5" r="19.5" stroke="none"/>
      <circle cx="19.5" cy="19.5" r="15" fill="none"/>
    </g>
    <g id="Ellipse_10" data-name="Ellipse 10" transform="translate(1023 538)" fill="none" stroke="#27debf" stroke-width="9" opacity="0.22">
      <circle cx="19.5" cy="19.5" r="19.5" stroke="none"/>
      <circle cx="19.5" cy="19.5" r="15" fill="none"/>
    </g>
    <g id="Ellipse_13" data-name="Ellipse 13" transform="translate(1213 779)" fill="none" stroke="#9370db" stroke-width="9" opacity="0.22">
      <circle cx="19.5" cy="19.5" r="19.5" stroke="none"/>
      <circle cx="19.5" cy="19.5" r="15" fill="none"/>
    </g>
    <g id="Ellipse_9" data-name="Ellipse 9" transform="translate(467 267)" fill="none" stroke="#dee5fa" stroke-width="9" opacity="0.81">
      <circle cx="19.5" cy="19.5" r="19.5" stroke="none"/>
      <circle cx="19.5" cy="19.5" r="15" fill="none"/>
    </g>
    <g id="Ellipse_11" data-name="Ellipse 11" transform="translate(977 177)" fill="none" stroke="#e295b3" stroke-width="9">
      <circle cx="19.5" cy="19.5" r="19.5" stroke="none"/>
      <circle cx="19.5" cy="19.5" r="15" fill="none"/>
    </g>
    <g id="Ellipse_14" data-name="Ellipse 14" transform="translate(1204 426)" fill="none" stroke="#4169e1" stroke-width="9" opacity="0.76">
      <circle cx="19.5" cy="19.5" r="19.5" stroke="none"/>
      <circle cx="19.5" cy="19.5" r="15" fill="none"/>
    </g>
    <circle id="Ellipse_12" data-name="Ellipse 12" cx="43.5" cy="43.5" r="43.5" transform="translate(665 525)" fill="#601aed" opacity="0.06"/>
  </g>
</svg>
