<svg xmlns="http://www.w3.org/2000/svg" width="415.908" height="528.973" viewBox="0 0 415.908 528.973"><g transform="translate(-717.573 -236.721)"><g transform="translate(972.573 236.721)"><g transform="translate(0 0)"><rect width="3.742" height="2.807" transform="translate(157.166)" fill="#9370db"/><rect width="2.807" height="2.807" transform="translate(145.004)" fill="#9370db"/><rect width="2.807" height="2.807" transform="translate(132.842)" fill="#9370db"/><rect width="3.742" height="2.807" transform="translate(120.681)" fill="#9370db"/><rect width="2.807" height="2.807" transform="translate(109.455)" fill="#9370db"/><rect width="3.742" height="2.807" transform="translate(97.293)" fill="#9370db"/><rect width="3.742" height="2.807" transform="translate(85.131)" fill="#9370db"/><rect width="3.742" height="2.807" transform="translate(72.97)" fill="#9370db"/><rect width="3.742" height="2.807" transform="translate(60.808)" fill="#9370db"/><rect width="1.871" height="2.807" transform="translate(49.582)" fill="#9370db"/><rect width="1.871" height="2.807" transform="translate(37.42)" fill="#9370db"/><rect width="2.807" height="2.807" transform="translate(25.259)" fill="#9370db"/><rect width="3.742" height="2.807" transform="translate(12.162)" fill="#9370db"/><rect width="3.742" height="2.807" fill="#9370db"/></g><g transform="translate(0 47.711)"><rect width="3.742" height="3.742" transform="translate(157.166 0)" fill="#9370db"/><rect width="2.807" height="3.742" transform="translate(145.004 0)" fill="#9370db"/><rect width="2.807" height="3.742" transform="translate(132.842 0)" fill="#9370db"/><rect width="3.742" height="3.742" transform="translate(120.681 0)" fill="#9370db"/><rect width="2.807" height="3.742" transform="translate(109.455 0)" fill="#9370db"/><rect width="3.742" height="3.742" transform="translate(97.293 0)" fill="#9370db"/><rect width="3.742" height="3.742" transform="translate(85.131 0)" fill="#9370db"/><rect width="3.742" height="3.742" transform="translate(72.97 0)" fill="#9370db"/><rect width="3.742" height="3.742" transform="translate(60.808 0)" fill="#9370db"/><rect width="1.871" height="3.742" transform="translate(49.582 0)" fill="#9370db"/><rect width="1.871" height="3.742" transform="translate(37.42 0)" fill="#9370db"/><rect width="2.807" height="3.742" transform="translate(25.259 0)" fill="#9370db"/><rect width="3.742" height="3.742" transform="translate(12.162 0)" fill="#9370db"/><rect width="3.742" height="3.742" transform="translate(0 0)" fill="#9370db"/></g><g transform="translate(0 97.293)"><rect width="3.742" height="3.742" transform="translate(157.166 0)" fill="#9370db"/><rect width="2.807" height="3.742" transform="translate(145.004 0)" fill="#9370db"/><rect width="2.807" height="3.742" transform="translate(132.842 0)" fill="#9370db"/><rect width="3.742" height="3.742" transform="translate(120.681 0)" fill="#9370db"/><rect width="2.807" height="3.742" transform="translate(109.455 0)" fill="#9370db"/><rect width="3.742" height="3.742" transform="translate(97.293 0)" fill="#9370db"/><rect width="3.742" height="3.742" transform="translate(85.131 0)" fill="#9370db"/><rect width="3.742" height="3.742" transform="translate(72.97 0)" fill="#9370db"/><rect width="3.742" height="3.742" transform="translate(60.808 0)" fill="#9370db"/><rect width="1.871" height="3.742" transform="translate(49.582 0)" fill="#9370db"/><rect width="1.871" height="3.742" transform="translate(37.42 0)" fill="#9370db"/><rect width="2.807" height="3.742" transform="translate(25.259 0)" fill="#9370db"/><rect width="3.742" height="3.742" transform="translate(12.162 0)" fill="#9370db"/><rect width="3.742" height="3.742" transform="translate(0 0)" fill="#9370db"/></g><g transform="translate(0 145.939)"><rect width="3.742" height="3.742" transform="translate(157.166 0)" fill="#9370db"/><rect width="2.807" height="3.742" transform="translate(145.004 0)" fill="#9370db"/><rect width="2.807" height="3.742" transform="translate(132.842 0)" fill="#9370db"/><rect width="3.742" height="3.742" transform="translate(120.681 0)" fill="#9370db"/><rect width="2.807" height="3.742" transform="translate(109.455 0)" fill="#9370db"/><rect width="3.742" height="3.742" transform="translate(97.293 0)" fill="#9370db"/><rect width="3.742" height="3.742" transform="translate(85.131 0)" fill="#9370db"/><rect width="3.742" height="3.742" transform="translate(72.97 0)" fill="#9370db"/><rect width="3.742" height="3.742" transform="translate(60.808 0)" fill="#9370db"/><rect width="1.871" height="3.742" transform="translate(49.582 0)" fill="#9370db"/><rect width="1.871" height="3.742" transform="translate(37.42 0)" fill="#9370db"/><rect width="2.807" height="3.742" transform="translate(25.259 0)" fill="#9370db"/><rect width="3.742" height="3.742" transform="translate(12.162 0)" fill="#9370db"/><rect width="3.742" height="3.742" transform="translate(0 0)" fill="#9370db"/></g><g transform="translate(0 9.355)"><rect width="3.742" height="2.807" transform="translate(157.166 0)" fill="#9370db"/><rect width="2.807" height="2.807" transform="translate(145.004 0)" fill="#9370db"/><rect width="2.807" height="2.807" transform="translate(132.842 0)" fill="#9370db"/><rect width="3.742" height="2.807" transform="translate(120.681 0)" fill="#9370db"/><rect width="2.807" height="2.807" transform="translate(109.455 0)" fill="#9370db"/><rect width="3.742" height="2.807" transform="translate(97.293 0)" fill="#9370db"/><rect width="3.742" height="2.807" transform="translate(85.131 0)" fill="#9370db"/><rect width="3.742" height="2.807" transform="translate(72.97 0)" fill="#9370db"/><rect width="3.742" height="2.807" transform="translate(60.808 0)" fill="#9370db"/><rect width="1.871" height="2.807" transform="translate(49.582 0)" fill="#9370db"/><rect width="1.871" height="2.807" transform="translate(37.42 0)" fill="#9370db"/><rect width="2.807" height="2.807" transform="translate(25.259 0)" fill="#9370db"/><rect width="3.742" height="2.807" transform="translate(12.162 0)" fill="#9370db"/><rect width="3.742" height="2.807" transform="translate(0 0)" fill="#9370db"/></g><g transform="translate(0 58.937)"><rect width="3.742" height="1.871" transform="translate(157.166 0)" fill="#9370db"/><rect width="2.807" height="1.871" transform="translate(145.004 0)" fill="#9370db"/><rect width="2.807" height="1.871" transform="translate(132.842 0)" fill="#9370db"/><rect width="3.742" height="1.871" transform="translate(120.681 0)" fill="#9370db"/><rect width="2.807" height="1.871" transform="translate(109.455 0)" fill="#9370db"/><rect width="3.742" height="1.871" transform="translate(97.293 0)" fill="#9370db"/><rect width="3.742" height="1.871" transform="translate(85.131 0)" fill="#9370db"/><rect width="3.742" height="1.871" transform="translate(72.97 0)" fill="#9370db"/><rect width="3.742" height="1.871" transform="translate(60.808 0)" fill="#9370db"/><rect width="1.871" height="1.871" transform="translate(49.582 0)" fill="#9370db"/><rect width="1.871" height="1.871" transform="translate(37.42 0)" fill="#9370db"/><rect width="2.807" height="1.871" transform="translate(25.259 0)" fill="#9370db"/><rect width="3.742" height="1.871" transform="translate(12.162 0)" fill="#9370db"/><rect width="3.742" height="1.871" transform="translate(0 0)" fill="#9370db"/></g><g transform="translate(0 106.648)"><rect width="3.742" height="4.678" transform="translate(157.166 0)" fill="#9370db"/><rect width="2.807" height="4.678" transform="translate(145.004 0)" fill="#9370db"/><rect width="2.807" height="4.678" transform="translate(132.842 0)" fill="#9370db"/><rect width="3.742" height="4.678" transform="translate(120.681 0)" fill="#9370db"/><rect width="2.807" height="4.678" transform="translate(109.455 0)" fill="#9370db"/><rect width="3.742" height="4.678" transform="translate(97.293 0)" fill="#9370db"/><rect width="3.742" height="4.678" transform="translate(85.131 0)" fill="#9370db"/><rect width="3.742" height="4.678" transform="translate(72.97 0)" fill="#9370db"/><rect width="3.742" height="4.678" transform="translate(60.808 0)" fill="#9370db"/><rect width="1.871" height="4.678" transform="translate(49.582 0)" fill="#9370db"/><rect width="1.871" height="4.678" transform="translate(37.42 0)" fill="#9370db"/><rect width="2.807" height="4.678" transform="translate(25.259 0)" fill="#9370db"/><rect width="3.742" height="4.678" transform="translate(12.162 0)" fill="#9370db"/><rect width="3.742" height="4.678" transform="translate(0 0)" fill="#9370db"/></g><g transform="translate(0 156.23)"><rect width="3.742" height="2.807" transform="translate(157.166 0)" fill="#9370db"/><rect width="2.807" height="2.807" transform="translate(145.004 0)" fill="#9370db"/><rect width="2.807" height="2.807" transform="translate(132.842 0)" fill="#9370db"/><rect width="3.742" height="2.807" transform="translate(120.681 0)" fill="#9370db"/><rect width="2.807" height="2.807" transform="translate(109.455 0)" fill="#9370db"/><rect width="3.742" height="2.807" transform="translate(97.293 0)" fill="#9370db"/><rect width="3.742" height="2.807" transform="translate(85.131 0)" fill="#9370db"/><rect width="3.742" height="2.807" transform="translate(72.97 0)" fill="#9370db"/><rect width="3.742" height="2.807" transform="translate(60.808 0)" fill="#9370db"/><rect width="1.871" height="2.807" transform="translate(49.582 0)" fill="#9370db"/><rect width="1.871" height="2.807" transform="translate(37.42 0)" fill="#9370db"/><rect width="2.807" height="2.807" transform="translate(25.259 0)" fill="#9370db"/><rect width="3.742" height="2.807" transform="translate(12.162 0)" fill="#9370db"/><rect width="3.742" height="2.807" transform="translate(0 0)" fill="#9370db"/></g><g transform="translate(0 19.646)"><rect width="3.742" height="2.807" transform="translate(157.166 0)" fill="#9370db"/><rect width="2.807" height="2.807" transform="translate(145.004 0)" fill="#9370db"/><rect width="2.807" height="2.807" transform="translate(132.842 0)" fill="#9370db"/><rect width="3.742" height="2.807" transform="translate(120.681 0)" fill="#9370db"/><rect width="2.807" height="2.807" transform="translate(109.455 0)" fill="#9370db"/><rect width="3.742" height="2.807" transform="translate(97.293 0)" fill="#9370db"/><rect width="3.742" height="2.807" transform="translate(85.131 0)" fill="#9370db"/><rect width="3.742" height="2.807" transform="translate(72.97 0)" fill="#9370db"/><rect width="3.742" height="2.807" transform="translate(60.808 0)" fill="#9370db"/><rect width="1.871" height="2.807" transform="translate(49.582 0)" fill="#9370db"/><rect width="1.871" height="2.807" transform="translate(37.42 0)" fill="#9370db"/><rect width="2.807" height="2.807" transform="translate(25.259 0)" fill="#9370db"/><rect width="3.742" height="2.807" transform="translate(12.162 0)" fill="#9370db"/><rect width="3.742" height="2.807" transform="translate(0 0)" fill="#9370db"/></g><g transform="translate(0 68.292)"><rect width="3.742" height="3.742" transform="translate(157.166 0)" fill="#9370db"/><rect width="2.807" height="3.742" transform="translate(145.004 0)" fill="#9370db"/><rect width="2.807" height="3.742" transform="translate(132.842 0)" fill="#9370db"/><rect width="3.742" height="3.742" transform="translate(120.681 0)" fill="#9370db"/><rect width="2.807" height="3.742" transform="translate(109.455 0)" fill="#9370db"/><rect width="3.742" height="3.742" transform="translate(97.293 0)" fill="#9370db"/><rect width="3.742" height="3.742" transform="translate(85.131 0)" fill="#9370db"/><rect width="3.742" height="3.742" transform="translate(72.97 0)" fill="#9370db"/><rect width="3.742" height="3.742" transform="translate(60.808 0)" fill="#9370db"/><rect width="1.871" height="3.742" transform="translate(49.582 0)" fill="#9370db"/><rect width="1.871" height="3.742" transform="translate(37.42 0)" fill="#9370db"/><rect width="2.807" height="3.742" transform="translate(25.259 0)" fill="#9370db"/><rect width="3.742" height="3.742" transform="translate(12.162 0)" fill="#9370db"/><rect width="3.742" height="3.742" transform="translate(0 0)" fill="#9370db"/></g><g transform="translate(0 117.874)"><rect width="3.742" height="1.871" transform="translate(157.166 0)" fill="#9370db"/><rect width="2.807" height="1.871" transform="translate(145.004 0)" fill="#9370db"/><rect width="2.807" height="1.871" transform="translate(132.842 0)" fill="#9370db"/><rect width="3.742" height="1.871" transform="translate(120.681 0)" fill="#9370db"/><rect width="2.807" height="1.871" transform="translate(109.455 0)" fill="#9370db"/><rect width="3.742" height="1.871" transform="translate(97.293 0)" fill="#9370db"/><rect width="3.742" height="1.871" transform="translate(85.131 0)" fill="#9370db"/><rect width="3.742" height="1.871" transform="translate(72.97 0)" fill="#9370db"/><rect width="3.742" height="1.871" transform="translate(60.808 0)" fill="#9370db"/><rect width="1.871" height="1.871" transform="translate(49.582 0)" fill="#9370db"/><rect width="1.871" height="1.871" transform="translate(37.42 0)" fill="#9370db"/><rect width="2.807" height="1.871" transform="translate(25.259 0)" fill="#9370db"/><rect width="3.742" height="1.871" transform="translate(12.162 0)" fill="#9370db"/><rect width="3.742" height="1.871" transform="translate(0 0)" fill="#9370db"/></g><g transform="translate(0 165.585)"><rect width="3.742" height="3.742" transform="translate(157.166 0)" fill="#9370db"/><rect width="2.807" height="3.742" transform="translate(145.004 0)" fill="#9370db"/><rect width="2.807" height="3.742" transform="translate(132.842 0)" fill="#9370db"/><rect width="3.742" height="3.742" transform="translate(120.681 0)" fill="#9370db"/><rect width="2.807" height="3.742" transform="translate(109.455 0)" fill="#9370db"/><rect width="3.742" height="3.742" transform="translate(97.293 0)" fill="#9370db"/><rect width="3.742" height="3.742" transform="translate(85.131 0)" fill="#9370db"/><rect width="3.742" height="3.742" transform="translate(72.97 0)" fill="#9370db"/><rect width="3.742" height="3.742" transform="translate(60.808 0)" fill="#9370db"/><rect width="1.871" height="3.742" transform="translate(49.582 0)" fill="#9370db"/><rect width="1.871" height="3.742" transform="translate(37.42 0)" fill="#9370db"/><rect width="2.807" height="3.742" transform="translate(25.259 0)" fill="#9370db"/><rect width="3.742" height="3.742" transform="translate(12.162 0)" fill="#9370db"/><rect width="3.742" height="3.742" transform="translate(0 0)" fill="#9370db"/></g><g transform="translate(0 29.001)"><rect width="3.742" height="3.742" transform="translate(157.166 0)" fill="#9370db"/><rect width="2.807" height="3.742" transform="translate(145.004 0)" fill="#9370db"/><rect width="2.807" height="3.742" transform="translate(132.842 0)" fill="#9370db"/><rect width="3.742" height="3.742" transform="translate(120.681 0)" fill="#9370db"/><rect width="2.807" height="3.742" transform="translate(109.455 0)" fill="#9370db"/><rect width="3.742" height="3.742" transform="translate(97.293 0)" fill="#9370db"/><rect width="3.742" height="3.742" transform="translate(85.131 0)" fill="#9370db"/><rect width="3.742" height="3.742" transform="translate(72.97 0)" fill="#9370db"/><rect width="3.742" height="3.742" transform="translate(60.808 0)" fill="#9370db"/><rect width="1.871" height="3.742" transform="translate(49.582 0)" fill="#9370db"/><rect width="1.871" height="3.742" transform="translate(37.42 0)" fill="#9370db"/><rect width="2.807" height="3.742" transform="translate(25.259 0)" fill="#9370db"/><rect width="3.742" height="3.742" transform="translate(12.162 0)" fill="#9370db"/><rect width="3.742" height="3.742" transform="translate(0 0)" fill="#9370db"/></g><g transform="translate(0 77.647)"><rect width="3.742" height="3.742" transform="translate(157.166 0)" fill="#9370db"/><rect width="2.807" height="3.742" transform="translate(145.004 0)" fill="#9370db"/><rect width="2.807" height="3.742" transform="translate(132.842 0)" fill="#9370db"/><rect width="3.742" height="3.742" transform="translate(120.681 0)" fill="#9370db"/><rect width="2.807" height="3.742" transform="translate(109.455 0)" fill="#9370db"/><rect width="3.742" height="3.742" transform="translate(97.293 0)" fill="#9370db"/><rect width="3.742" height="3.742" transform="translate(85.131 0)" fill="#9370db"/><rect width="3.742" height="3.742" transform="translate(72.97 0)" fill="#9370db"/><rect width="3.742" height="3.742" transform="translate(60.808 0)" fill="#9370db"/><rect width="1.871" height="3.742" transform="translate(49.582 0)" fill="#9370db"/><rect width="1.871" height="3.742" transform="translate(37.42 0)" fill="#9370db"/><rect width="2.807" height="3.742" transform="translate(25.259 0)" fill="#9370db"/><rect width="3.742" height="3.742" transform="translate(12.162 0)" fill="#9370db"/><rect width="3.742" height="3.742" transform="translate(0 0)" fill="#9370db"/></g><g transform="translate(0 127.229)"><rect width="3.742" height="1.871" transform="translate(157.166 0)" fill="#9370db"/><rect width="2.807" height="1.871" transform="translate(145.004 0)" fill="#9370db"/><rect width="2.807" height="1.871" transform="translate(132.842 0)" fill="#9370db"/><rect width="3.742" height="1.871" transform="translate(120.681 0)" fill="#9370db"/><rect width="2.807" height="1.871" transform="translate(109.455 0)" fill="#9370db"/><rect width="3.742" height="1.871" transform="translate(97.293 0)" fill="#9370db"/><rect width="3.742" height="1.871" transform="translate(85.131 0)" fill="#9370db"/><rect width="3.742" height="1.871" transform="translate(72.97 0)" fill="#9370db"/><rect width="3.742" height="1.871" transform="translate(60.808 0)" fill="#9370db"/><rect width="1.871" height="1.871" transform="translate(49.582 0)" fill="#9370db"/><rect width="1.871" height="1.871" transform="translate(37.42 0)" fill="#9370db"/><rect width="2.807" height="1.871" transform="translate(25.259 0)" fill="#9370db"/><rect width="3.742" height="1.871" transform="translate(12.162 0)" fill="#9370db"/><rect width="3.742" height="1.871" transform="translate(0 0)" fill="#9370db"/></g><g transform="translate(0 175.876)"><rect width="3.742" height="2.807" transform="translate(157.166 0)" fill="#9370db"/><rect width="2.807" height="2.807" transform="translate(145.004 0)" fill="#9370db"/><rect width="2.807" height="2.807" transform="translate(132.842 0)" fill="#9370db"/><rect width="3.742" height="2.807" transform="translate(120.681 0)" fill="#9370db"/><rect width="2.807" height="2.807" transform="translate(109.455 0)" fill="#9370db"/><rect width="3.742" height="2.807" transform="translate(97.293 0)" fill="#9370db"/><rect width="3.742" height="2.807" transform="translate(85.131 0)" fill="#9370db"/><rect width="3.742" height="2.807" transform="translate(72.97 0)" fill="#9370db"/><rect width="3.742" height="2.807" transform="translate(60.808 0)" fill="#9370db"/><rect width="1.871" height="2.807" transform="translate(49.582 0)" fill="#9370db"/><rect width="1.871" height="2.807" transform="translate(37.42 0)" fill="#9370db"/><rect width="2.807" height="2.807" transform="translate(25.259 0)" fill="#9370db"/><rect width="3.742" height="2.807" transform="translate(12.162 0)" fill="#9370db"/><rect width="3.742" height="2.807" transform="translate(0 0)" fill="#9370db"/></g><g transform="translate(0 39.291)"><rect width="3.742" height="2.807" transform="translate(157.166 0)" fill="#9370db"/><rect width="2.807" height="2.807" transform="translate(145.004 0)" fill="#9370db"/><rect width="2.807" height="2.807" transform="translate(132.842 0)" fill="#9370db"/><rect width="3.742" height="2.807" transform="translate(120.681 0)" fill="#9370db"/><rect width="2.807" height="2.807" transform="translate(109.455 0)" fill="#9370db"/><rect width="3.742" height="2.807" transform="translate(97.293 0)" fill="#9370db"/><rect width="3.742" height="2.807" transform="translate(85.131 0)" fill="#9370db"/><rect width="3.742" height="2.807" transform="translate(72.97 0)" fill="#9370db"/><rect width="3.742" height="2.807" transform="translate(60.808 0)" fill="#9370db"/><rect width="1.871" height="2.807" transform="translate(49.582 0)" fill="#9370db"/><rect width="1.871" height="2.807" transform="translate(37.42 0)" fill="#9370db"/><rect width="2.807" height="2.807" transform="translate(25.259 0)" fill="#9370db"/><rect width="3.742" height="2.807" transform="translate(12.162 0)" fill="#9370db"/><rect width="3.742" height="2.807" transform="translate(0 0)" fill="#9370db"/></g><g transform="translate(0 88.873)"><rect width="3.742" height="1.871" transform="translate(157.166 0)" fill="#9370db"/><rect width="2.807" height="1.871" transform="translate(145.004 0)" fill="#9370db"/><rect width="2.807" height="1.871" transform="translate(132.842 0)" fill="#9370db"/><rect width="3.742" height="1.871" transform="translate(120.681 0)" fill="#9370db"/><rect width="2.807" height="1.871" transform="translate(109.455 0)" fill="#9370db"/><rect width="3.742" height="1.871" transform="translate(97.293 0)" fill="#9370db"/><rect width="3.742" height="1.871" transform="translate(85.131 0)" fill="#9370db"/><rect width="3.742" height="1.871" transform="translate(72.97 0)" fill="#9370db"/><rect width="3.742" height="1.871" transform="translate(60.808 0)" fill="#9370db"/><rect width="1.871" height="1.871" transform="translate(49.582 0)" fill="#9370db"/><rect width="1.871" height="1.871" transform="translate(37.42 0)" fill="#9370db"/><rect width="2.807" height="1.871" transform="translate(25.259 0)" fill="#9370db"/><rect width="3.742" height="1.871" transform="translate(12.162 0)" fill="#9370db"/><rect width="3.742" height="1.871" transform="translate(0 0)" fill="#9370db"/></g><g transform="translate(0 136.584)"><rect width="3.742" height="3.742" transform="translate(157.166 0)" fill="#9370db"/><rect width="2.807" height="3.742" transform="translate(145.004 0)" fill="#9370db"/><rect width="2.807" height="3.742" transform="translate(132.842 0)" fill="#9370db"/><rect width="3.742" height="3.742" transform="translate(120.681 0)" fill="#9370db"/><rect width="2.807" height="3.742" transform="translate(109.455 0)" fill="#9370db"/><rect width="3.742" height="3.742" transform="translate(97.293 0)" fill="#9370db"/><rect width="3.742" height="3.742" transform="translate(85.131 0)" fill="#9370db"/><rect width="3.742" height="3.742" transform="translate(72.97 0)" fill="#9370db"/><rect width="3.742" height="3.742" transform="translate(60.808 0)" fill="#9370db"/><rect width="1.871" height="3.742" transform="translate(49.582 0)" fill="#9370db"/><rect width="1.871" height="3.742" transform="translate(37.42 0)" fill="#9370db"/><rect width="2.807" height="3.742" transform="translate(25.259 0)" fill="#9370db"/><rect width="3.742" height="3.742" transform="translate(12.162 0)" fill="#9370db"/><rect width="3.742" height="3.742" transform="translate(0 0)" fill="#9370db"/></g><g transform="translate(0 185.231)"><rect width="3.742" height="3.742" transform="translate(157.166 0)" fill="#9370db"/><rect width="2.807" height="3.742" transform="translate(145.004 0)" fill="#9370db"/><rect width="2.807" height="3.742" transform="translate(132.842 0)" fill="#9370db"/><rect width="3.742" height="3.742" transform="translate(120.681 0)" fill="#9370db"/><rect width="2.807" height="3.742" transform="translate(109.455 0)" fill="#9370db"/><rect width="3.742" height="3.742" transform="translate(97.293 0)" fill="#9370db"/><rect width="3.742" height="3.742" transform="translate(85.131 0)" fill="#9370db"/><rect width="3.742" height="3.742" transform="translate(72.97 0)" fill="#9370db"/><rect width="3.742" height="3.742" transform="translate(60.808 0)" fill="#9370db"/><rect width="1.871" height="3.742" transform="translate(49.582 0)" fill="#9370db"/><rect width="1.871" height="3.742" transform="translate(37.42 0)" fill="#9370db"/><rect width="2.807" height="3.742" transform="translate(25.259 0)" fill="#9370db"/><rect width="3.742" height="3.742" transform="translate(12.162 0)" fill="#9370db"/><rect width="3.742" height="3.742" transform="translate(0 0)" fill="#9370db"/></g></g><g transform="translate(717.573 576.721)"><g transform="translate(0 0)"><rect width="3.742" height="2.807" transform="translate(157.166)" fill="#9370db"/><rect width="2.807" height="2.807" transform="translate(145.004)" fill="#9370db"/><rect width="2.807" height="2.807" transform="translate(132.842)" fill="#9370db"/><rect width="3.742" height="2.807" transform="translate(120.681)" fill="#9370db"/><rect width="2.807" height="2.807" transform="translate(109.455)" fill="#9370db"/><rect width="3.742" height="2.807" transform="translate(97.293)" fill="#9370db"/><rect width="3.742" height="2.807" transform="translate(85.131)" fill="#9370db"/><rect width="3.742" height="2.807" transform="translate(72.97)" fill="#9370db"/><rect width="3.742" height="2.807" transform="translate(60.808)" fill="#9370db"/><rect width="1.871" height="2.807" transform="translate(49.582)" fill="#9370db"/><rect width="1.871" height="2.807" transform="translate(37.42)" fill="#9370db"/><rect width="2.807" height="2.807" transform="translate(25.259)" fill="#9370db"/><rect width="3.742" height="2.807" transform="translate(12.162)" fill="#9370db"/><rect width="3.742" height="2.807" fill="#9370db"/></g><g transform="translate(0 47.711)"><rect width="3.742" height="3.742" transform="translate(157.166 0)" fill="#9370db"/><rect width="2.807" height="3.742" transform="translate(145.004 0)" fill="#9370db"/><rect width="2.807" height="3.742" transform="translate(132.842 0)" fill="#9370db"/><rect width="3.742" height="3.742" transform="translate(120.681 0)" fill="#9370db"/><rect width="2.807" height="3.742" transform="translate(109.455 0)" fill="#9370db"/><rect width="3.742" height="3.742" transform="translate(97.293 0)" fill="#9370db"/><rect width="3.742" height="3.742" transform="translate(85.131 0)" fill="#9370db"/><rect width="3.742" height="3.742" transform="translate(72.97 0)" fill="#9370db"/><rect width="3.742" height="3.742" transform="translate(60.808 0)" fill="#9370db"/><rect width="1.871" height="3.742" transform="translate(49.582 0)" fill="#9370db"/><rect width="1.871" height="3.742" transform="translate(37.42 0)" fill="#9370db"/><rect width="2.807" height="3.742" transform="translate(25.259 0)" fill="#9370db"/><rect width="3.742" height="3.742" transform="translate(12.162 0)" fill="#9370db"/><rect width="3.742" height="3.742" transform="translate(0 0)" fill="#9370db"/></g><g transform="translate(0 97.293)"><rect width="3.742" height="3.742" transform="translate(157.166 0)" fill="#9370db"/><rect width="2.807" height="3.742" transform="translate(145.004 0)" fill="#9370db"/><rect width="2.807" height="3.742" transform="translate(132.842 0)" fill="#9370db"/><rect width="3.742" height="3.742" transform="translate(120.681 0)" fill="#9370db"/><rect width="2.807" height="3.742" transform="translate(109.455 0)" fill="#9370db"/><rect width="3.742" height="3.742" transform="translate(97.293 0)" fill="#9370db"/><rect width="3.742" height="3.742" transform="translate(85.131 0)" fill="#9370db"/><rect width="3.742" height="3.742" transform="translate(72.97 0)" fill="#9370db"/><rect width="3.742" height="3.742" transform="translate(60.808 0)" fill="#9370db"/><rect width="1.871" height="3.742" transform="translate(49.582 0)" fill="#9370db"/><rect width="1.871" height="3.742" transform="translate(37.42 0)" fill="#9370db"/><rect width="2.807" height="3.742" transform="translate(25.259 0)" fill="#9370db"/><rect width="3.742" height="3.742" transform="translate(12.162 0)" fill="#9370db"/><rect width="3.742" height="3.742" transform="translate(0 0)" fill="#9370db"/></g><g transform="translate(0 145.939)"><rect width="3.742" height="3.742" transform="translate(157.166 0)" fill="#9370db"/><rect width="2.807" height="3.742" transform="translate(145.004 0)" fill="#9370db"/><rect width="2.807" height="3.742" transform="translate(132.842 0)" fill="#9370db"/><rect width="3.742" height="3.742" transform="translate(120.681 0)" fill="#9370db"/><rect width="2.807" height="3.742" transform="translate(109.455 0)" fill="#9370db"/><rect width="3.742" height="3.742" transform="translate(97.293 0)" fill="#9370db"/><rect width="3.742" height="3.742" transform="translate(85.131 0)" fill="#9370db"/><rect width="3.742" height="3.742" transform="translate(72.97 0)" fill="#9370db"/><rect width="3.742" height="3.742" transform="translate(60.808 0)" fill="#9370db"/><rect width="1.871" height="3.742" transform="translate(49.582 0)" fill="#9370db"/><rect width="1.871" height="3.742" transform="translate(37.42 0)" fill="#9370db"/><rect width="2.807" height="3.742" transform="translate(25.259 0)" fill="#9370db"/><rect width="3.742" height="3.742" transform="translate(12.162 0)" fill="#9370db"/><rect width="3.742" height="3.742" transform="translate(0 0)" fill="#9370db"/></g><g transform="translate(0 9.355)"><rect width="3.742" height="2.807" transform="translate(157.166 0)" fill="#9370db"/><rect width="2.807" height="2.807" transform="translate(145.004 0)" fill="#9370db"/><rect width="2.807" height="2.807" transform="translate(132.842 0)" fill="#9370db"/><rect width="3.742" height="2.807" transform="translate(120.681 0)" fill="#9370db"/><rect width="2.807" height="2.807" transform="translate(109.455 0)" fill="#9370db"/><rect width="3.742" height="2.807" transform="translate(97.293 0)" fill="#9370db"/><rect width="3.742" height="2.807" transform="translate(85.131 0)" fill="#9370db"/><rect width="3.742" height="2.807" transform="translate(72.97 0)" fill="#9370db"/><rect width="3.742" height="2.807" transform="translate(60.808 0)" fill="#9370db"/><rect width="1.871" height="2.807" transform="translate(49.582 0)" fill="#9370db"/><rect width="1.871" height="2.807" transform="translate(37.42 0)" fill="#9370db"/><rect width="2.807" height="2.807" transform="translate(25.259 0)" fill="#9370db"/><rect width="3.742" height="2.807" transform="translate(12.162 0)" fill="#9370db"/><rect width="3.742" height="2.807" transform="translate(0 0)" fill="#9370db"/></g><g transform="translate(0 58.937)"><rect width="3.742" height="1.871" transform="translate(157.166 0)" fill="#9370db"/><rect width="2.807" height="1.871" transform="translate(145.004 0)" fill="#9370db"/><rect width="2.807" height="1.871" transform="translate(132.842 0)" fill="#9370db"/><rect width="3.742" height="1.871" transform="translate(120.681 0)" fill="#9370db"/><rect width="2.807" height="1.871" transform="translate(109.455 0)" fill="#9370db"/><rect width="3.742" height="1.871" transform="translate(97.293 0)" fill="#9370db"/><rect width="3.742" height="1.871" transform="translate(85.131 0)" fill="#9370db"/><rect width="3.742" height="1.871" transform="translate(72.97 0)" fill="#9370db"/><rect width="3.742" height="1.871" transform="translate(60.808 0)" fill="#9370db"/><rect width="1.871" height="1.871" transform="translate(49.582 0)" fill="#9370db"/><rect width="1.871" height="1.871" transform="translate(37.42 0)" fill="#9370db"/><rect width="2.807" height="1.871" transform="translate(25.259 0)" fill="#9370db"/><rect width="3.742" height="1.871" transform="translate(12.162 0)" fill="#9370db"/><rect width="3.742" height="1.871" transform="translate(0 0)" fill="#9370db"/></g><g transform="translate(0 106.648)"><rect width="3.742" height="4.678" transform="translate(157.166 0)" fill="#9370db"/><rect width="2.807" height="4.678" transform="translate(145.004 0)" fill="#9370db"/><rect width="2.807" height="4.678" transform="translate(132.842 0)" fill="#9370db"/><rect width="3.742" height="4.678" transform="translate(120.681 0)" fill="#9370db"/><rect width="2.807" height="4.678" transform="translate(109.455 0)" fill="#9370db"/><rect width="3.742" height="4.678" transform="translate(97.293 0)" fill="#9370db"/><rect width="3.742" height="4.678" transform="translate(85.131 0)" fill="#9370db"/><rect width="3.742" height="4.678" transform="translate(72.97 0)" fill="#9370db"/><rect width="3.742" height="4.678" transform="translate(60.808 0)" fill="#9370db"/><rect width="1.871" height="4.678" transform="translate(49.582 0)" fill="#9370db"/><rect width="1.871" height="4.678" transform="translate(37.42 0)" fill="#9370db"/><rect width="2.807" height="4.678" transform="translate(25.259 0)" fill="#9370db"/><rect width="3.742" height="4.678" transform="translate(12.162 0)" fill="#9370db"/><rect width="3.742" height="4.678" transform="translate(0 0)" fill="#9370db"/></g><g transform="translate(0 156.23)"><rect width="3.742" height="2.807" transform="translate(157.166 0)" fill="#9370db"/><rect width="2.807" height="2.807" transform="translate(145.004 0)" fill="#9370db"/><rect width="2.807" height="2.807" transform="translate(132.842 0)" fill="#9370db"/><rect width="3.742" height="2.807" transform="translate(120.681 0)" fill="#9370db"/><rect width="2.807" height="2.807" transform="translate(109.455 0)" fill="#9370db"/><rect width="3.742" height="2.807" transform="translate(97.293 0)" fill="#9370db"/><rect width="3.742" height="2.807" transform="translate(85.131 0)" fill="#9370db"/><rect width="3.742" height="2.807" transform="translate(72.97 0)" fill="#9370db"/><rect width="3.742" height="2.807" transform="translate(60.808 0)" fill="#9370db"/><rect width="1.871" height="2.807" transform="translate(49.582 0)" fill="#9370db"/><rect width="1.871" height="2.807" transform="translate(37.42 0)" fill="#9370db"/><rect width="2.807" height="2.807" transform="translate(25.259 0)" fill="#9370db"/><rect width="3.742" height="2.807" transform="translate(12.162 0)" fill="#9370db"/><rect width="3.742" height="2.807" transform="translate(0 0)" fill="#9370db"/></g><g transform="translate(0 19.646)"><rect width="3.742" height="2.807" transform="translate(157.166 0)" fill="#9370db"/><rect width="2.807" height="2.807" transform="translate(145.004 0)" fill="#9370db"/><rect width="2.807" height="2.807" transform="translate(132.842 0)" fill="#9370db"/><rect width="3.742" height="2.807" transform="translate(120.681 0)" fill="#9370db"/><rect width="2.807" height="2.807" transform="translate(109.455 0)" fill="#9370db"/><rect width="3.742" height="2.807" transform="translate(97.293 0)" fill="#9370db"/><rect width="3.742" height="2.807" transform="translate(85.131 0)" fill="#9370db"/><rect width="3.742" height="2.807" transform="translate(72.97 0)" fill="#9370db"/><rect width="3.742" height="2.807" transform="translate(60.808 0)" fill="#9370db"/><rect width="1.871" height="2.807" transform="translate(49.582 0)" fill="#9370db"/><rect width="1.871" height="2.807" transform="translate(37.42 0)" fill="#9370db"/><rect width="2.807" height="2.807" transform="translate(25.259 0)" fill="#9370db"/><rect width="3.742" height="2.807" transform="translate(12.162 0)" fill="#9370db"/><rect width="3.742" height="2.807" transform="translate(0 0)" fill="#9370db"/></g><g transform="translate(0 68.292)"><rect width="3.742" height="3.742" transform="translate(157.166 0)" fill="#9370db"/><rect width="2.807" height="3.742" transform="translate(145.004 0)" fill="#9370db"/><rect width="2.807" height="3.742" transform="translate(132.842 0)" fill="#9370db"/><rect width="3.742" height="3.742" transform="translate(120.681 0)" fill="#9370db"/><rect width="2.807" height="3.742" transform="translate(109.455 0)" fill="#9370db"/><rect width="3.742" height="3.742" transform="translate(97.293 0)" fill="#9370db"/><rect width="3.742" height="3.742" transform="translate(85.131 0)" fill="#9370db"/><rect width="3.742" height="3.742" transform="translate(72.97 0)" fill="#9370db"/><rect width="3.742" height="3.742" transform="translate(60.808 0)" fill="#9370db"/><rect width="1.871" height="3.742" transform="translate(49.582 0)" fill="#9370db"/><rect width="1.871" height="3.742" transform="translate(37.42 0)" fill="#9370db"/><rect width="2.807" height="3.742" transform="translate(25.259 0)" fill="#9370db"/><rect width="3.742" height="3.742" transform="translate(12.162 0)" fill="#9370db"/><rect width="3.742" height="3.742" transform="translate(0 0)" fill="#9370db"/></g><g transform="translate(0 117.874)"><rect width="3.742" height="1.871" transform="translate(157.166 0)" fill="#9370db"/><rect width="2.807" height="1.871" transform="translate(145.004 0)" fill="#9370db"/><rect width="2.807" height="1.871" transform="translate(132.842 0)" fill="#9370db"/><rect width="3.742" height="1.871" transform="translate(120.681 0)" fill="#9370db"/><rect width="2.807" height="1.871" transform="translate(109.455 0)" fill="#9370db"/><rect width="3.742" height="1.871" transform="translate(97.293 0)" fill="#9370db"/><rect width="3.742" height="1.871" transform="translate(85.131 0)" fill="#9370db"/><rect width="3.742" height="1.871" transform="translate(72.97 0)" fill="#9370db"/><rect width="3.742" height="1.871" transform="translate(60.808 0)" fill="#9370db"/><rect width="1.871" height="1.871" transform="translate(49.582 0)" fill="#9370db"/><rect width="1.871" height="1.871" transform="translate(37.42 0)" fill="#9370db"/><rect width="2.807" height="1.871" transform="translate(25.259 0)" fill="#9370db"/><rect width="3.742" height="1.871" transform="translate(12.162 0)" fill="#9370db"/><rect width="3.742" height="1.871" transform="translate(0 0)" fill="#9370db"/></g><g transform="translate(0 165.585)"><rect width="3.742" height="3.742" transform="translate(157.166 0)" fill="#9370db"/><rect width="2.807" height="3.742" transform="translate(145.004 0)" fill="#9370db"/><rect width="2.807" height="3.742" transform="translate(132.842 0)" fill="#9370db"/><rect width="3.742" height="3.742" transform="translate(120.681 0)" fill="#9370db"/><rect width="2.807" height="3.742" transform="translate(109.455 0)" fill="#9370db"/><rect width="3.742" height="3.742" transform="translate(97.293 0)" fill="#9370db"/><rect width="3.742" height="3.742" transform="translate(85.131 0)" fill="#9370db"/><rect width="3.742" height="3.742" transform="translate(72.97 0)" fill="#9370db"/><rect width="3.742" height="3.742" transform="translate(60.808 0)" fill="#9370db"/><rect width="1.871" height="3.742" transform="translate(49.582 0)" fill="#9370db"/><rect width="1.871" height="3.742" transform="translate(37.42 0)" fill="#9370db"/><rect width="2.807" height="3.742" transform="translate(25.259 0)" fill="#9370db"/><rect width="3.742" height="3.742" transform="translate(12.162 0)" fill="#9370db"/><rect width="3.742" height="3.742" transform="translate(0 0)" fill="#9370db"/></g><g transform="translate(0 29.001)"><rect width="3.742" height="3.742" transform="translate(157.166 0)" fill="#9370db"/><rect width="2.807" height="3.742" transform="translate(145.004 0)" fill="#9370db"/><rect width="2.807" height="3.742" transform="translate(132.842 0)" fill="#9370db"/><rect width="3.742" height="3.742" transform="translate(120.681 0)" fill="#9370db"/><rect width="2.807" height="3.742" transform="translate(109.455 0)" fill="#9370db"/><rect width="3.742" height="3.742" transform="translate(97.293 0)" fill="#9370db"/><rect width="3.742" height="3.742" transform="translate(85.131 0)" fill="#9370db"/><rect width="3.742" height="3.742" transform="translate(72.97 0)" fill="#9370db"/><rect width="3.742" height="3.742" transform="translate(60.808 0)" fill="#9370db"/><rect width="1.871" height="3.742" transform="translate(49.582 0)" fill="#9370db"/><rect width="1.871" height="3.742" transform="translate(37.42 0)" fill="#9370db"/><rect width="2.807" height="3.742" transform="translate(25.259 0)" fill="#9370db"/><rect width="3.742" height="3.742" transform="translate(12.162 0)" fill="#9370db"/><rect width="3.742" height="3.742" transform="translate(0 0)" fill="#9370db"/></g><g transform="translate(0 77.647)"><rect width="3.742" height="3.742" transform="translate(157.166 0)" fill="#9370db"/><rect width="2.807" height="3.742" transform="translate(145.004 0)" fill="#9370db"/><rect width="2.807" height="3.742" transform="translate(132.842 0)" fill="#9370db"/><rect width="3.742" height="3.742" transform="translate(120.681 0)" fill="#9370db"/><rect width="2.807" height="3.742" transform="translate(109.455 0)" fill="#9370db"/><rect width="3.742" height="3.742" transform="translate(97.293 0)" fill="#9370db"/><rect width="3.742" height="3.742" transform="translate(85.131 0)" fill="#9370db"/><rect width="3.742" height="3.742" transform="translate(72.97 0)" fill="#9370db"/><rect width="3.742" height="3.742" transform="translate(60.808 0)" fill="#9370db"/><rect width="1.871" height="3.742" transform="translate(49.582 0)" fill="#9370db"/><rect width="1.871" height="3.742" transform="translate(37.42 0)" fill="#9370db"/><rect width="2.807" height="3.742" transform="translate(25.259 0)" fill="#9370db"/><rect width="3.742" height="3.742" transform="translate(12.162 0)" fill="#9370db"/><rect width="3.742" height="3.742" transform="translate(0 0)" fill="#9370db"/></g><g transform="translate(0 127.229)"><rect width="3.742" height="1.871" transform="translate(157.166 0)" fill="#9370db"/><rect width="2.807" height="1.871" transform="translate(145.004 0)" fill="#9370db"/><rect width="2.807" height="1.871" transform="translate(132.842 0)" fill="#9370db"/><rect width="3.742" height="1.871" transform="translate(120.681 0)" fill="#9370db"/><rect width="2.807" height="1.871" transform="translate(109.455 0)" fill="#9370db"/><rect width="3.742" height="1.871" transform="translate(97.293 0)" fill="#9370db"/><rect width="3.742" height="1.871" transform="translate(85.131 0)" fill="#9370db"/><rect width="3.742" height="1.871" transform="translate(72.97 0)" fill="#9370db"/><rect width="3.742" height="1.871" transform="translate(60.808 0)" fill="#9370db"/><rect width="1.871" height="1.871" transform="translate(49.582 0)" fill="#9370db"/><rect width="1.871" height="1.871" transform="translate(37.42 0)" fill="#9370db"/><rect width="2.807" height="1.871" transform="translate(25.259 0)" fill="#9370db"/><rect width="3.742" height="1.871" transform="translate(12.162 0)" fill="#9370db"/><rect width="3.742" height="1.871" transform="translate(0 0)" fill="#9370db"/></g><g transform="translate(0 175.876)"><rect width="3.742" height="2.807" transform="translate(157.166 0)" fill="#9370db"/><rect width="2.807" height="2.807" transform="translate(145.004 0)" fill="#9370db"/><rect width="2.807" height="2.807" transform="translate(132.842 0)" fill="#9370db"/><rect width="3.742" height="2.807" transform="translate(120.681 0)" fill="#9370db"/><rect width="2.807" height="2.807" transform="translate(109.455 0)" fill="#9370db"/><rect width="3.742" height="2.807" transform="translate(97.293 0)" fill="#9370db"/><rect width="3.742" height="2.807" transform="translate(85.131 0)" fill="#9370db"/><rect width="3.742" height="2.807" transform="translate(72.97 0)" fill="#9370db"/><rect width="3.742" height="2.807" transform="translate(60.808 0)" fill="#9370db"/><rect width="1.871" height="2.807" transform="translate(49.582 0)" fill="#9370db"/><rect width="1.871" height="2.807" transform="translate(37.42 0)" fill="#9370db"/><rect width="2.807" height="2.807" transform="translate(25.259 0)" fill="#9370db"/><rect width="3.742" height="2.807" transform="translate(12.162 0)" fill="#9370db"/><rect width="3.742" height="2.807" transform="translate(0 0)" fill="#9370db"/></g><g transform="translate(0 39.291)"><rect width="3.742" height="2.807" transform="translate(157.166 0)" fill="#9370db"/><rect width="2.807" height="2.807" transform="translate(145.004 0)" fill="#9370db"/><rect width="2.807" height="2.807" transform="translate(132.842 0)" fill="#9370db"/><rect width="3.742" height="2.807" transform="translate(120.681 0)" fill="#9370db"/><rect width="2.807" height="2.807" transform="translate(109.455 0)" fill="#9370db"/><rect width="3.742" height="2.807" transform="translate(97.293 0)" fill="#9370db"/><rect width="3.742" height="2.807" transform="translate(85.131 0)" fill="#9370db"/><rect width="3.742" height="2.807" transform="translate(72.97 0)" fill="#9370db"/><rect width="3.742" height="2.807" transform="translate(60.808 0)" fill="#9370db"/><rect width="1.871" height="2.807" transform="translate(49.582 0)" fill="#9370db"/><rect width="1.871" height="2.807" transform="translate(37.42 0)" fill="#9370db"/><rect width="2.807" height="2.807" transform="translate(25.259 0)" fill="#9370db"/><rect width="3.742" height="2.807" transform="translate(12.162 0)" fill="#9370db"/><rect width="3.742" height="2.807" transform="translate(0 0)" fill="#9370db"/></g><g transform="translate(0 88.873)"><rect width="3.742" height="1.871" transform="translate(157.166 0)" fill="#9370db"/><rect width="2.807" height="1.871" transform="translate(145.004 0)" fill="#9370db"/><rect width="2.807" height="1.871" transform="translate(132.842 0)" fill="#9370db"/><rect width="3.742" height="1.871" transform="translate(120.681 0)" fill="#9370db"/><rect width="2.807" height="1.871" transform="translate(109.455 0)" fill="#9370db"/><rect width="3.742" height="1.871" transform="translate(97.293 0)" fill="#9370db"/><rect width="3.742" height="1.871" transform="translate(85.131 0)" fill="#9370db"/><rect width="3.742" height="1.871" transform="translate(72.97 0)" fill="#9370db"/><rect width="3.742" height="1.871" transform="translate(60.808 0)" fill="#9370db"/><rect width="1.871" height="1.871" transform="translate(49.582 0)" fill="#9370db"/><rect width="1.871" height="1.871" transform="translate(37.42 0)" fill="#9370db"/><rect width="2.807" height="1.871" transform="translate(25.259 0)" fill="#9370db"/><rect width="3.742" height="1.871" transform="translate(12.162 0)" fill="#9370db"/><rect width="3.742" height="1.871" transform="translate(0 0)" fill="#9370db"/></g><g transform="translate(0 136.584)"><rect width="3.742" height="3.742" transform="translate(157.166 0)" fill="#9370db"/><rect width="2.807" height="3.742" transform="translate(145.004 0)" fill="#9370db"/><rect width="2.807" height="3.742" transform="translate(132.842 0)" fill="#9370db"/><rect width="3.742" height="3.742" transform="translate(120.681 0)" fill="#9370db"/><rect width="2.807" height="3.742" transform="translate(109.455 0)" fill="#9370db"/><rect width="3.742" height="3.742" transform="translate(97.293 0)" fill="#9370db"/><rect width="3.742" height="3.742" transform="translate(85.131 0)" fill="#9370db"/><rect width="3.742" height="3.742" transform="translate(72.97 0)" fill="#9370db"/><rect width="3.742" height="3.742" transform="translate(60.808 0)" fill="#9370db"/><rect width="1.871" height="3.742" transform="translate(49.582 0)" fill="#9370db"/><rect width="1.871" height="3.742" transform="translate(37.42 0)" fill="#9370db"/><rect width="2.807" height="3.742" transform="translate(25.259 0)" fill="#9370db"/><rect width="3.742" height="3.742" transform="translate(12.162 0)" fill="#9370db"/><rect width="3.742" height="3.742" transform="translate(0 0)" fill="#9370db"/></g><g transform="translate(0 185.231)"><rect width="3.742" height="3.742" transform="translate(157.166 0)" fill="#9370db"/><rect width="2.807" height="3.742" transform="translate(145.004 0)" fill="#9370db"/><rect width="2.807" height="3.742" transform="translate(132.842 0)" fill="#9370db"/><rect width="3.742" height="3.742" transform="translate(120.681 0)" fill="#9370db"/><rect width="2.807" height="3.742" transform="translate(109.455 0)" fill="#9370db"/><rect width="3.742" height="3.742" transform="translate(97.293 0)" fill="#9370db"/><rect width="3.742" height="3.742" transform="translate(85.131 0)" fill="#9370db"/><rect width="3.742" height="3.742" transform="translate(72.97 0)" fill="#9370db"/><rect width="3.742" height="3.742" transform="translate(60.808 0)" fill="#9370db"/><rect width="1.871" height="3.742" transform="translate(49.582 0)" fill="#9370db"/><rect width="1.871" height="3.742" transform="translate(37.42 0)" fill="#9370db"/><rect width="2.807" height="3.742" transform="translate(25.259 0)" fill="#9370db"/><rect width="3.742" height="3.742" transform="translate(12.162 0)" fill="#9370db"/><rect width="3.742" height="3.742" transform="translate(0 0)" fill="#9370db"/></g></g></g></svg>