<svg xmlns="http://www.w3.org/2000/svg" width="57.405" height="61.033" viewBox="0 0 57.405 61.033">
  <g id="coding" transform="translate(-14.219)">
    <path id="Path_154" data-name="Path 154" d="M134.44,119.157a15.313,15.313,0,1,0,13.9,8.879A15.335,15.335,0,0,0,134.44,119.157Zm-5.648,17.785a1.021,1.021,0,1,1-1.443,1.443l-3.191-3.191a1.021,1.021,0,0,1,0-1.443l3.191-3.191A1.021,1.021,0,1,1,128.792,132l-2.469,2.469Zm9.088-6.289-5.1,8.675a1.021,1.021,0,1,1-1.759-1.035l5.1-8.675a1.021,1.021,0,0,1,1.759,1.035Zm6.732,4.541-3.191,3.191a1.021,1.021,0,1,1-1.443-1.443l2.469-2.469L139.978,132a1.021,1.021,0,1,1,1.443-1.443l3.191,3.191A1.021,1.021,0,0,1,144.612,135.195Z" transform="translate(-91.527 -103.957)" fill="#eb9ab7"/>
    <path id="Path_155" data-name="Path 155" d="M71.233,40.759l-4.8-3.749a24.519,24.519,0,0,0,0-12.986l4.8-3.749a1.021,1.021,0,0,0,.255-1.314l-4.275-7.4a1.02,1.02,0,0,0-1.265-.436L60.3,13.4a24.253,24.253,0,0,0-11.239-6.5L48.207.878A1.019,1.019,0,0,0,47.2,0h-8.55a1.019,1.019,0,0,0-1.01.878l-.85,6.028a24.253,24.253,0,0,0-11.239,6.5L19.9,11.12a1.023,1.023,0,0,0-1.267.436l-4.275,7.4a1.021,1.021,0,0,0,.255,1.314l4.8,3.749a24.519,24.519,0,0,0,0,12.986l-4.8,3.749a1.021,1.021,0,0,0-.255,1.314l4.275,7.4a1.023,1.023,0,0,0,1.267.436l5.651-2.281a24.253,24.253,0,0,0,11.239,6.5l.85,6.028a1.019,1.019,0,0,0,1.01.878H47.2a1.019,1.019,0,0,0,1.01-.878l.85-6.028a24.253,24.253,0,0,0,11.239-6.5l5.652,2.281a1.022,1.022,0,0,0,1.265-.436l4.275-7.4A1.021,1.021,0,0,0,71.233,40.759Zm-21.016,5.5a17.349,17.349,0,1,1,8.445-23.036A17.415,17.415,0,0,1,50.217,46.257Z" fill="#eb9ab7"/>
  </g>
</svg>
