<svg xmlns="http://www.w3.org/2000/svg" width="210" height="249" viewBox="0 0 210 249">
  <g id="Group_403" data-name="Group 403" transform="translate(4340.13 -4462)">
    <g id="Group_97" data-name="Group 97" transform="translate(-4340.13 4462)">
      <rect id="Rectangle_86" data-name="Rectangle 86" width="5" height="5" transform="translate(205)" fill="#9370db"/>
      <rect id="Rectangle_87" data-name="Rectangle 87" width="5" height="5" transform="translate(189)" fill="#9370db"/>
      <rect id="Rectangle_88" data-name="Rectangle 88" width="4" height="5" transform="translate(174)" fill="#9370db"/>
      <rect id="Rectangle_89" data-name="Rectangle 89" width="5" height="5" transform="translate(158)" fill="#9370db"/>
      <rect id="Rectangle_90" data-name="Rectangle 90" width="5" height="5" transform="translate(142)" fill="#9370db"/>
      <rect id="Rectangle_91" data-name="Rectangle 91" width="5" height="5" transform="translate(126)" fill="#9370db"/>
      <rect id="Rectangle_92" data-name="Rectangle 92" width="5" height="5" transform="translate(110)" fill="#9370db"/>
      <rect id="Rectangle_93" data-name="Rectangle 93" width="5" height="5" transform="translate(95)" fill="#9370db"/>
      <rect id="Rectangle_94" data-name="Rectangle 94" width="4" height="5" transform="translate(80)" fill="#9370db"/>
      <rect id="Rectangle_95" data-name="Rectangle 95" width="5" height="5" transform="translate(63)" fill="#9370db"/>
      <rect id="Rectangle_96" data-name="Rectangle 96" width="5" height="5" transform="translate(47)" fill="#9370db"/>
      <rect id="Rectangle_97" data-name="Rectangle 97" width="4" height="5" transform="translate(32)" fill="#9370db"/>
      <rect id="Rectangle_98" data-name="Rectangle 98" width="5" height="5" transform="translate(16)" fill="#9370db"/>
      <rect id="Rectangle_99" data-name="Rectangle 99" width="5" height="5" fill="#9370db"/>
    </g>
    <g id="Group_106" data-name="Group 106" transform="translate(-4340.13 4526.343)">
      <rect id="Rectangle_86-2" data-name="Rectangle 86" width="5" height="4" transform="translate(205 -0.343)" fill="#9370db"/>
      <rect id="Rectangle_87-2" data-name="Rectangle 87" width="5" height="4" transform="translate(189 -0.343)" fill="#9370db"/>
      <rect id="Rectangle_88-2" data-name="Rectangle 88" width="4" height="4" transform="translate(174 -0.343)" fill="#9370db"/>
      <rect id="Rectangle_89-2" data-name="Rectangle 89" width="5" height="4" transform="translate(158 -0.343)" fill="#9370db"/>
      <rect id="Rectangle_90-2" data-name="Rectangle 90" width="5" height="4" transform="translate(142 -0.343)" fill="#9370db"/>
      <rect id="Rectangle_91-2" data-name="Rectangle 91" width="5" height="4" transform="translate(126 -0.343)" fill="#9370db"/>
      <rect id="Rectangle_92-2" data-name="Rectangle 92" width="5" height="4" transform="translate(110 -0.343)" fill="#9370db"/>
      <rect id="Rectangle_93-2" data-name="Rectangle 93" width="5" height="4" transform="translate(95 -0.343)" fill="#9370db"/>
      <rect id="Rectangle_94-2" data-name="Rectangle 94" width="4" height="4" transform="translate(80 -0.343)" fill="#9370db"/>
      <rect id="Rectangle_95-2" data-name="Rectangle 95" width="5" height="4" transform="translate(63 -0.343)" fill="#9370db"/>
      <rect id="Rectangle_96-2" data-name="Rectangle 96" width="5" height="4" transform="translate(47 -0.343)" fill="#9370db"/>
      <rect id="Rectangle_97-2" data-name="Rectangle 97" width="4" height="4" transform="translate(32 -0.343)" fill="#9370db"/>
      <rect id="Rectangle_98-2" data-name="Rectangle 98" width="5" height="4" transform="translate(16 -0.343)" fill="#9370db"/>
      <rect id="Rectangle_99-2" data-name="Rectangle 99" width="5" height="4" transform="translate(0 -0.343)" fill="#9370db"/>
    </g>
    <g id="Group_111" data-name="Group 111" transform="translate(-4340.13 4590.686)">
      <rect id="Rectangle_86-3" data-name="Rectangle 86" width="5" height="3" transform="translate(205 0.314)" fill="#9370db"/>
      <rect id="Rectangle_87-3" data-name="Rectangle 87" width="5" height="3" transform="translate(189 0.314)" fill="#9370db"/>
      <rect id="Rectangle_88-3" data-name="Rectangle 88" width="4" height="3" transform="translate(174 0.314)" fill="#9370db"/>
      <rect id="Rectangle_89-3" data-name="Rectangle 89" width="5" height="3" transform="translate(158 0.314)" fill="#9370db"/>
      <rect id="Rectangle_90-3" data-name="Rectangle 90" width="5" height="3" transform="translate(142 0.314)" fill="#9370db"/>
      <rect id="Rectangle_91-3" data-name="Rectangle 91" width="5" height="3" transform="translate(126 0.314)" fill="#9370db"/>
      <rect id="Rectangle_92-3" data-name="Rectangle 92" width="5" height="3" transform="translate(110 0.314)" fill="#9370db"/>
      <rect id="Rectangle_93-3" data-name="Rectangle 93" width="5" height="3" transform="translate(95 0.314)" fill="#9370db"/>
      <rect id="Rectangle_94-3" data-name="Rectangle 94" width="4" height="3" transform="translate(80 0.314)" fill="#9370db"/>
      <rect id="Rectangle_95-3" data-name="Rectangle 95" width="5" height="3" transform="translate(63 0.314)" fill="#9370db"/>
      <rect id="Rectangle_96-3" data-name="Rectangle 96" width="5" height="3" transform="translate(47 0.314)" fill="#9370db"/>
      <rect id="Rectangle_97-3" data-name="Rectangle 97" width="4" height="3" transform="translate(32 0.314)" fill="#9370db"/>
      <rect id="Rectangle_98-3" data-name="Rectangle 98" width="5" height="3" transform="translate(16 0.314)" fill="#9370db"/>
      <rect id="Rectangle_99-3" data-name="Rectangle 99" width="5" height="3" transform="translate(0 0.314)" fill="#9370db"/>
    </g>
    <g id="Group_116" data-name="Group 116" transform="translate(-4340.13 4655.028)">
      <rect id="Rectangle_86-4" data-name="Rectangle 86" width="5" height="4" transform="translate(205 -0.028)" fill="#9370db"/>
      <rect id="Rectangle_87-4" data-name="Rectangle 87" width="5" height="4" transform="translate(189 -0.028)" fill="#9370db"/>
      <rect id="Rectangle_88-4" data-name="Rectangle 88" width="4" height="4" transform="translate(174 -0.028)" fill="#9370db"/>
      <rect id="Rectangle_89-4" data-name="Rectangle 89" width="5" height="4" transform="translate(158 -0.028)" fill="#9370db"/>
      <rect id="Rectangle_90-4" data-name="Rectangle 90" width="5" height="4" transform="translate(142 -0.028)" fill="#9370db"/>
      <rect id="Rectangle_91-4" data-name="Rectangle 91" width="5" height="4" transform="translate(126 -0.028)" fill="#9370db"/>
      <rect id="Rectangle_92-4" data-name="Rectangle 92" width="5" height="4" transform="translate(110 -0.028)" fill="#9370db"/>
      <rect id="Rectangle_93-4" data-name="Rectangle 93" width="5" height="4" transform="translate(95 -0.028)" fill="#9370db"/>
      <rect id="Rectangle_94-4" data-name="Rectangle 94" width="4" height="4" transform="translate(80 -0.028)" fill="#9370db"/>
      <rect id="Rectangle_95-4" data-name="Rectangle 95" width="5" height="4" transform="translate(63 -0.028)" fill="#9370db"/>
      <rect id="Rectangle_96-4" data-name="Rectangle 96" width="5" height="4" transform="translate(47 -0.028)" fill="#9370db"/>
      <rect id="Rectangle_97-4" data-name="Rectangle 97" width="4" height="4" transform="translate(32 -0.028)" fill="#9370db"/>
      <rect id="Rectangle_98-4" data-name="Rectangle 98" width="5" height="4" transform="translate(16 -0.028)" fill="#9370db"/>
      <rect id="Rectangle_99-4" data-name="Rectangle 99" width="5" height="4" transform="translate(0 -0.028)" fill="#9370db"/>
    </g>
    <g id="Group_98" data-name="Group 98" transform="translate(-4340.13 4475.354)">
      <rect id="Rectangle_86-5" data-name="Rectangle 86" width="5" height="4" transform="translate(205 -0.354)" fill="#9370db"/>
      <rect id="Rectangle_87-5" data-name="Rectangle 87" width="5" height="4" transform="translate(189 -0.354)" fill="#9370db"/>
      <rect id="Rectangle_88-5" data-name="Rectangle 88" width="4" height="4" transform="translate(174 -0.354)" fill="#9370db"/>
      <rect id="Rectangle_89-5" data-name="Rectangle 89" width="5" height="4" transform="translate(158 -0.354)" fill="#9370db"/>
      <rect id="Rectangle_90-5" data-name="Rectangle 90" width="5" height="4" transform="translate(142 -0.354)" fill="#9370db"/>
      <rect id="Rectangle_91-5" data-name="Rectangle 91" width="5" height="4" transform="translate(126 -0.354)" fill="#9370db"/>
      <rect id="Rectangle_92-5" data-name="Rectangle 92" width="5" height="4" transform="translate(110 -0.354)" fill="#9370db"/>
      <rect id="Rectangle_93-5" data-name="Rectangle 93" width="5" height="4" transform="translate(95 -0.354)" fill="#9370db"/>
      <rect id="Rectangle_94-5" data-name="Rectangle 94" width="4" height="4" transform="translate(80 -0.354)" fill="#9370db"/>
      <rect id="Rectangle_95-5" data-name="Rectangle 95" width="5" height="4" transform="translate(63 -0.354)" fill="#9370db"/>
      <rect id="Rectangle_96-5" data-name="Rectangle 96" width="5" height="4" transform="translate(47 -0.354)" fill="#9370db"/>
      <rect id="Rectangle_97-5" data-name="Rectangle 97" width="4" height="4" transform="translate(32 -0.354)" fill="#9370db"/>
      <rect id="Rectangle_98-5" data-name="Rectangle 98" width="5" height="4" transform="translate(16 -0.354)" fill="#9370db"/>
      <rect id="Rectangle_99-5" data-name="Rectangle 99" width="5" height="4" transform="translate(0 -0.354)" fill="#9370db"/>
    </g>
    <g id="Group_105" data-name="Group 105" transform="translate(-4340.13 4539.697)">
      <rect id="Rectangle_86-6" data-name="Rectangle 86" width="5" height="3" transform="translate(205 0.303)" fill="#9370db"/>
      <rect id="Rectangle_87-6" data-name="Rectangle 87" width="5" height="3" transform="translate(189 0.303)" fill="#9370db"/>
      <rect id="Rectangle_88-6" data-name="Rectangle 88" width="4" height="3" transform="translate(174 0.303)" fill="#9370db"/>
      <rect id="Rectangle_89-6" data-name="Rectangle 89" width="5" height="3" transform="translate(158 0.303)" fill="#9370db"/>
      <rect id="Rectangle_90-6" data-name="Rectangle 90" width="5" height="3" transform="translate(142 0.303)" fill="#9370db"/>
      <rect id="Rectangle_91-6" data-name="Rectangle 91" width="5" height="3" transform="translate(126 0.303)" fill="#9370db"/>
      <rect id="Rectangle_92-6" data-name="Rectangle 92" width="5" height="3" transform="translate(110 0.303)" fill="#9370db"/>
      <rect id="Rectangle_93-6" data-name="Rectangle 93" width="5" height="3" transform="translate(95 0.303)" fill="#9370db"/>
      <rect id="Rectangle_94-6" data-name="Rectangle 94" width="4" height="3" transform="translate(80 0.303)" fill="#9370db"/>
      <rect id="Rectangle_95-6" data-name="Rectangle 95" width="5" height="3" transform="translate(63 0.303)" fill="#9370db"/>
      <rect id="Rectangle_96-6" data-name="Rectangle 96" width="5" height="3" transform="translate(47 0.303)" fill="#9370db"/>
      <rect id="Rectangle_97-6" data-name="Rectangle 97" width="4" height="3" transform="translate(32 0.303)" fill="#9370db"/>
      <rect id="Rectangle_98-6" data-name="Rectangle 98" width="5" height="3" transform="translate(16 0.303)" fill="#9370db"/>
      <rect id="Rectangle_99-6" data-name="Rectangle 99" width="5" height="3" transform="translate(0 0.303)" fill="#9370db"/>
    </g>
    <g id="Group_110" data-name="Group 110" transform="translate(-4340.13 4604.04)">
      <rect id="Rectangle_86-7" data-name="Rectangle 86" width="5" height="4" transform="translate(205 -0.04)" fill="#9370db"/>
      <rect id="Rectangle_87-7" data-name="Rectangle 87" width="5" height="4" transform="translate(189 -0.04)" fill="#9370db"/>
      <rect id="Rectangle_88-7" data-name="Rectangle 88" width="4" height="4" transform="translate(174 -0.04)" fill="#9370db"/>
      <rect id="Rectangle_89-7" data-name="Rectangle 89" width="5" height="4" transform="translate(158 -0.04)" fill="#9370db"/>
      <rect id="Rectangle_90-7" data-name="Rectangle 90" width="5" height="4" transform="translate(142 -0.04)" fill="#9370db"/>
      <rect id="Rectangle_91-7" data-name="Rectangle 91" width="5" height="4" transform="translate(126 -0.04)" fill="#9370db"/>
      <rect id="Rectangle_92-7" data-name="Rectangle 92" width="5" height="4" transform="translate(110 -0.04)" fill="#9370db"/>
      <rect id="Rectangle_93-7" data-name="Rectangle 93" width="5" height="4" transform="translate(95 -0.04)" fill="#9370db"/>
      <rect id="Rectangle_94-7" data-name="Rectangle 94" width="4" height="4" transform="translate(80 -0.04)" fill="#9370db"/>
      <rect id="Rectangle_95-7" data-name="Rectangle 95" width="5" height="4" transform="translate(63 -0.04)" fill="#9370db"/>
      <rect id="Rectangle_96-7" data-name="Rectangle 96" width="5" height="4" transform="translate(47 -0.04)" fill="#9370db"/>
      <rect id="Rectangle_97-7" data-name="Rectangle 97" width="4" height="4" transform="translate(32 -0.04)" fill="#9370db"/>
      <rect id="Rectangle_98-7" data-name="Rectangle 98" width="5" height="4" transform="translate(16 -0.04)" fill="#9370db"/>
      <rect id="Rectangle_99-7" data-name="Rectangle 99" width="5" height="4" transform="translate(0 -0.04)" fill="#9370db"/>
    </g>
    <g id="Group_115" data-name="Group 115" transform="translate(-4340.13 4667.168)">
      <rect id="Rectangle_86-8" data-name="Rectangle 86" width="5" height="5" transform="translate(205 -0.168)" fill="#9370db"/>
      <rect id="Rectangle_87-8" data-name="Rectangle 87" width="5" height="5" transform="translate(189 -0.168)" fill="#9370db"/>
      <rect id="Rectangle_88-8" data-name="Rectangle 88" width="4" height="5" transform="translate(174 -0.168)" fill="#9370db"/>
      <rect id="Rectangle_89-8" data-name="Rectangle 89" width="5" height="5" transform="translate(158 -0.168)" fill="#9370db"/>
      <rect id="Rectangle_90-8" data-name="Rectangle 90" width="5" height="5" transform="translate(142 -0.168)" fill="#9370db"/>
      <rect id="Rectangle_91-8" data-name="Rectangle 91" width="5" height="5" transform="translate(126 -0.168)" fill="#9370db"/>
      <rect id="Rectangle_92-8" data-name="Rectangle 92" width="5" height="5" transform="translate(110 -0.168)" fill="#9370db"/>
      <rect id="Rectangle_93-8" data-name="Rectangle 93" width="5" height="5" transform="translate(95 -0.168)" fill="#9370db"/>
      <rect id="Rectangle_94-8" data-name="Rectangle 94" width="4" height="5" transform="translate(80 -0.168)" fill="#9370db"/>
      <rect id="Rectangle_95-8" data-name="Rectangle 95" width="5" height="5" transform="translate(63 -0.168)" fill="#9370db"/>
      <rect id="Rectangle_96-8" data-name="Rectangle 96" width="5" height="5" transform="translate(47 -0.168)" fill="#9370db"/>
      <rect id="Rectangle_97-8" data-name="Rectangle 97" width="4" height="5" transform="translate(32 -0.168)" fill="#9370db"/>
      <rect id="Rectangle_98-8" data-name="Rectangle 98" width="5" height="5" transform="translate(16 -0.168)" fill="#9370db"/>
      <rect id="Rectangle_99-8" data-name="Rectangle 99" width="5" height="5" transform="translate(0 -0.168)" fill="#9370db"/>
    </g>
    <g id="Group_99" data-name="Group 99" transform="translate(-4340.13 4487.494)">
      <rect id="Rectangle_86-9" data-name="Rectangle 86" width="5" height="5" transform="translate(205 -0.494)" fill="#9370db"/>
      <rect id="Rectangle_87-9" data-name="Rectangle 87" width="5" height="5" transform="translate(189 -0.494)" fill="#9370db"/>
      <rect id="Rectangle_88-9" data-name="Rectangle 88" width="4" height="5" transform="translate(174 -0.494)" fill="#9370db"/>
      <rect id="Rectangle_89-9" data-name="Rectangle 89" width="5" height="5" transform="translate(158 -0.494)" fill="#9370db"/>
      <rect id="Rectangle_90-9" data-name="Rectangle 90" width="5" height="5" transform="translate(142 -0.494)" fill="#9370db"/>
      <rect id="Rectangle_91-9" data-name="Rectangle 91" width="5" height="5" transform="translate(126 -0.494)" fill="#9370db"/>
      <rect id="Rectangle_92-9" data-name="Rectangle 92" width="5" height="5" transform="translate(110 -0.494)" fill="#9370db"/>
      <rect id="Rectangle_93-9" data-name="Rectangle 93" width="5" height="5" transform="translate(95 -0.494)" fill="#9370db"/>
      <rect id="Rectangle_94-9" data-name="Rectangle 94" width="4" height="5" transform="translate(80 -0.494)" fill="#9370db"/>
      <rect id="Rectangle_95-9" data-name="Rectangle 95" width="5" height="5" transform="translate(63 -0.494)" fill="#9370db"/>
      <rect id="Rectangle_96-9" data-name="Rectangle 96" width="5" height="5" transform="translate(47 -0.494)" fill="#9370db"/>
      <rect id="Rectangle_97-9" data-name="Rectangle 97" width="4" height="5" transform="translate(32 -0.494)" fill="#9370db"/>
      <rect id="Rectangle_98-9" data-name="Rectangle 98" width="5" height="5" transform="translate(16 -0.494)" fill="#9370db"/>
      <rect id="Rectangle_99-9" data-name="Rectangle 99" width="5" height="5" transform="translate(0 -0.494)" fill="#9370db"/>
    </g>
    <g id="Group_104" data-name="Group 104" transform="translate(-4340.13 4553.051)">
      <rect id="Rectangle_86-10" data-name="Rectangle 86" width="5" height="2" transform="translate(205 -0.051)" fill="#9370db"/>
      <rect id="Rectangle_87-10" data-name="Rectangle 87" width="5" height="2" transform="translate(189 -0.051)" fill="#9370db"/>
      <rect id="Rectangle_88-10" data-name="Rectangle 88" width="4" height="2" transform="translate(174 -0.051)" fill="#9370db"/>
      <rect id="Rectangle_89-10" data-name="Rectangle 89" width="5" height="2" transform="translate(158 -0.051)" fill="#9370db"/>
      <rect id="Rectangle_90-10" data-name="Rectangle 90" width="5" height="2" transform="translate(142 -0.051)" fill="#9370db"/>
      <rect id="Rectangle_91-10" data-name="Rectangle 91" width="5" height="2" transform="translate(126 -0.051)" fill="#9370db"/>
      <rect id="Rectangle_92-10" data-name="Rectangle 92" width="5" height="2" transform="translate(110 -0.051)" fill="#9370db"/>
      <rect id="Rectangle_93-10" data-name="Rectangle 93" width="5" height="2" transform="translate(95 -0.051)" fill="#9370db"/>
      <rect id="Rectangle_94-10" data-name="Rectangle 94" width="4" height="2" transform="translate(80 -0.051)" fill="#9370db"/>
      <rect id="Rectangle_95-10" data-name="Rectangle 95" width="5" height="2" transform="translate(63 -0.051)" fill="#9370db"/>
      <rect id="Rectangle_96-10" data-name="Rectangle 96" width="5" height="2" transform="translate(47 -0.051)" fill="#9370db"/>
      <rect id="Rectangle_97-10" data-name="Rectangle 97" width="4" height="2" transform="translate(32 -0.051)" fill="#9370db"/>
      <rect id="Rectangle_98-10" data-name="Rectangle 98" width="5" height="2" transform="translate(16 -0.051)" fill="#9370db"/>
      <rect id="Rectangle_99-10" data-name="Rectangle 99" width="5" height="2" transform="translate(0 -0.051)" fill="#9370db"/>
    </g>
    <g id="Group_109" data-name="Group 109" transform="translate(-4340.13 4616.18)">
      <rect id="Rectangle_86-11" data-name="Rectangle 86" width="5" height="4" transform="translate(205 -0.18)" fill="#9370db"/>
      <rect id="Rectangle_87-11" data-name="Rectangle 87" width="5" height="4" transform="translate(189 -0.18)" fill="#9370db"/>
      <rect id="Rectangle_88-11" data-name="Rectangle 88" width="4" height="4" transform="translate(174 -0.18)" fill="#9370db"/>
      <rect id="Rectangle_89-11" data-name="Rectangle 89" width="5" height="4" transform="translate(158 -0.18)" fill="#9370db"/>
      <rect id="Rectangle_90-11" data-name="Rectangle 90" width="5" height="4" transform="translate(142 -0.18)" fill="#9370db"/>
      <rect id="Rectangle_91-11" data-name="Rectangle 91" width="5" height="4" transform="translate(126 -0.18)" fill="#9370db"/>
      <rect id="Rectangle_92-11" data-name="Rectangle 92" width="5" height="4" transform="translate(110 -0.18)" fill="#9370db"/>
      <rect id="Rectangle_93-11" data-name="Rectangle 93" width="5" height="4" transform="translate(95 -0.18)" fill="#9370db"/>
      <rect id="Rectangle_94-11" data-name="Rectangle 94" width="4" height="4" transform="translate(80 -0.18)" fill="#9370db"/>
      <rect id="Rectangle_95-11" data-name="Rectangle 95" width="5" height="4" transform="translate(63 -0.18)" fill="#9370db"/>
      <rect id="Rectangle_96-11" data-name="Rectangle 96" width="5" height="4" transform="translate(47 -0.18)" fill="#9370db"/>
      <rect id="Rectangle_97-11" data-name="Rectangle 97" width="4" height="4" transform="translate(32 -0.18)" fill="#9370db"/>
      <rect id="Rectangle_98-11" data-name="Rectangle 98" width="5" height="4" transform="translate(16 -0.18)" fill="#9370db"/>
      <rect id="Rectangle_99-11" data-name="Rectangle 99" width="5" height="4" transform="translate(0 -0.18)" fill="#9370db"/>
    </g>
    <g id="Group_114" data-name="Group 114" transform="translate(-4340.13 4680.522)">
      <rect id="Rectangle_86-12" data-name="Rectangle 86" width="5" height="3" transform="translate(205 0.478)" fill="#9370db"/>
      <rect id="Rectangle_87-12" data-name="Rectangle 87" width="5" height="3" transform="translate(189 0.478)" fill="#9370db"/>
      <rect id="Rectangle_88-12" data-name="Rectangle 88" width="4" height="3" transform="translate(174 0.478)" fill="#9370db"/>
      <rect id="Rectangle_89-12" data-name="Rectangle 89" width="5" height="3" transform="translate(158 0.478)" fill="#9370db"/>
      <rect id="Rectangle_90-12" data-name="Rectangle 90" width="5" height="3" transform="translate(142 0.478)" fill="#9370db"/>
      <rect id="Rectangle_91-12" data-name="Rectangle 91" width="5" height="3" transform="translate(126 0.478)" fill="#9370db"/>
      <rect id="Rectangle_92-12" data-name="Rectangle 92" width="5" height="3" transform="translate(110 0.478)" fill="#9370db"/>
      <rect id="Rectangle_93-12" data-name="Rectangle 93" width="5" height="3" transform="translate(95 0.478)" fill="#9370db"/>
      <rect id="Rectangle_94-12" data-name="Rectangle 94" width="4" height="3" transform="translate(80 0.478)" fill="#9370db"/>
      <rect id="Rectangle_95-12" data-name="Rectangle 95" width="5" height="3" transform="translate(63 0.478)" fill="#9370db"/>
      <rect id="Rectangle_96-12" data-name="Rectangle 96" width="5" height="3" transform="translate(47 0.478)" fill="#9370db"/>
      <rect id="Rectangle_97-12" data-name="Rectangle 97" width="4" height="3" transform="translate(32 0.478)" fill="#9370db"/>
      <rect id="Rectangle_98-12" data-name="Rectangle 98" width="5" height="3" transform="translate(16 0.478)" fill="#9370db"/>
      <rect id="Rectangle_99-12" data-name="Rectangle 99" width="5" height="3" transform="translate(0 0.478)" fill="#9370db"/>
    </g>
    <g id="Group_100" data-name="Group 100" transform="translate(-4340.13 4500.849)">
      <rect id="Rectangle_86-13" data-name="Rectangle 86" width="5" height="3" transform="translate(205 0.151)" fill="#9370db"/>
      <rect id="Rectangle_87-13" data-name="Rectangle 87" width="5" height="3" transform="translate(189 0.151)" fill="#9370db"/>
      <rect id="Rectangle_88-13" data-name="Rectangle 88" width="4" height="3" transform="translate(174 0.151)" fill="#9370db"/>
      <rect id="Rectangle_89-13" data-name="Rectangle 89" width="5" height="3" transform="translate(158 0.151)" fill="#9370db"/>
      <rect id="Rectangle_90-13" data-name="Rectangle 90" width="5" height="3" transform="translate(142 0.151)" fill="#9370db"/>
      <rect id="Rectangle_91-13" data-name="Rectangle 91" width="5" height="3" transform="translate(126 0.151)" fill="#9370db"/>
      <rect id="Rectangle_92-13" data-name="Rectangle 92" width="5" height="3" transform="translate(110 0.151)" fill="#9370db"/>
      <rect id="Rectangle_93-13" data-name="Rectangle 93" width="5" height="3" transform="translate(95 0.151)" fill="#9370db"/>
      <rect id="Rectangle_94-13" data-name="Rectangle 94" width="4" height="3" transform="translate(80 0.151)" fill="#9370db"/>
      <rect id="Rectangle_95-13" data-name="Rectangle 95" width="5" height="3" transform="translate(63 0.151)" fill="#9370db"/>
      <rect id="Rectangle_96-13" data-name="Rectangle 96" width="5" height="3" transform="translate(47 0.151)" fill="#9370db"/>
      <rect id="Rectangle_97-13" data-name="Rectangle 97" width="4" height="3" transform="translate(32 0.151)" fill="#9370db"/>
      <rect id="Rectangle_98-13" data-name="Rectangle 98" width="5" height="3" transform="translate(16 0.151)" fill="#9370db"/>
      <rect id="Rectangle_99-13" data-name="Rectangle 99" width="5" height="3" transform="translate(0 0.151)" fill="#9370db"/>
    </g>
    <g id="Group_103" data-name="Group 103" transform="translate(-4340.13 4565.191)">
      <rect id="Rectangle_86-14" data-name="Rectangle 86" width="5" height="4" transform="translate(205 -0.191)" fill="#9370db"/>
      <rect id="Rectangle_87-14" data-name="Rectangle 87" width="5" height="4" transform="translate(189 -0.191)" fill="#9370db"/>
      <rect id="Rectangle_88-14" data-name="Rectangle 88" width="4" height="4" transform="translate(174 -0.191)" fill="#9370db"/>
      <rect id="Rectangle_89-14" data-name="Rectangle 89" width="5" height="4" transform="translate(158 -0.191)" fill="#9370db"/>
      <rect id="Rectangle_90-14" data-name="Rectangle 90" width="5" height="4" transform="translate(142 -0.191)" fill="#9370db"/>
      <rect id="Rectangle_91-14" data-name="Rectangle 91" width="5" height="4" transform="translate(126 -0.191)" fill="#9370db"/>
      <rect id="Rectangle_92-14" data-name="Rectangle 92" width="5" height="4" transform="translate(110 -0.191)" fill="#9370db"/>
      <rect id="Rectangle_93-14" data-name="Rectangle 93" width="5" height="4" transform="translate(95 -0.191)" fill="#9370db"/>
      <rect id="Rectangle_94-14" data-name="Rectangle 94" width="4" height="4" transform="translate(80 -0.191)" fill="#9370db"/>
      <rect id="Rectangle_95-14" data-name="Rectangle 95" width="5" height="4" transform="translate(63 -0.191)" fill="#9370db"/>
      <rect id="Rectangle_96-14" data-name="Rectangle 96" width="5" height="4" transform="translate(47 -0.191)" fill="#9370db"/>
      <rect id="Rectangle_97-14" data-name="Rectangle 97" width="4" height="4" transform="translate(32 -0.191)" fill="#9370db"/>
      <rect id="Rectangle_98-14" data-name="Rectangle 98" width="5" height="4" transform="translate(16 -0.191)" fill="#9370db"/>
      <rect id="Rectangle_99-14" data-name="Rectangle 99" width="5" height="4" transform="translate(0 -0.191)" fill="#9370db"/>
    </g>
    <g id="Group_108" data-name="Group 108" transform="translate(-4340.13 4629.534)">
      <rect id="Rectangle_86-15" data-name="Rectangle 86" width="5" height="3" transform="translate(205 0.466)" fill="#9370db"/>
      <rect id="Rectangle_87-15" data-name="Rectangle 87" width="5" height="3" transform="translate(189 0.466)" fill="#9370db"/>
      <rect id="Rectangle_88-15" data-name="Rectangle 88" width="4" height="3" transform="translate(174 0.466)" fill="#9370db"/>
      <rect id="Rectangle_89-15" data-name="Rectangle 89" width="5" height="3" transform="translate(158 0.466)" fill="#9370db"/>
      <rect id="Rectangle_90-15" data-name="Rectangle 90" width="5" height="3" transform="translate(142 0.466)" fill="#9370db"/>
      <rect id="Rectangle_91-15" data-name="Rectangle 91" width="5" height="3" transform="translate(126 0.466)" fill="#9370db"/>
      <rect id="Rectangle_92-15" data-name="Rectangle 92" width="5" height="3" transform="translate(110 0.466)" fill="#9370db"/>
      <rect id="Rectangle_93-15" data-name="Rectangle 93" width="5" height="3" transform="translate(95 0.466)" fill="#9370db"/>
      <rect id="Rectangle_94-15" data-name="Rectangle 94" width="4" height="3" transform="translate(80 0.466)" fill="#9370db"/>
      <rect id="Rectangle_95-15" data-name="Rectangle 95" width="5" height="3" transform="translate(63 0.466)" fill="#9370db"/>
      <rect id="Rectangle_96-15" data-name="Rectangle 96" width="5" height="3" transform="translate(47 0.466)" fill="#9370db"/>
      <rect id="Rectangle_97-15" data-name="Rectangle 97" width="4" height="3" transform="translate(32 0.466)" fill="#9370db"/>
      <rect id="Rectangle_98-15" data-name="Rectangle 98" width="5" height="3" transform="translate(16 0.466)" fill="#9370db"/>
      <rect id="Rectangle_99-15" data-name="Rectangle 99" width="5" height="3" transform="translate(0 0.466)" fill="#9370db"/>
    </g>
    <g id="Group_113" data-name="Group 113" transform="translate(-4340.13 4693.877)">
      <rect id="Rectangle_86-16" data-name="Rectangle 86" width="5" height="4" transform="translate(205 0.123)" fill="#9370db"/>
      <rect id="Rectangle_87-16" data-name="Rectangle 87" width="5" height="4" transform="translate(189 0.123)" fill="#9370db"/>
      <rect id="Rectangle_88-16" data-name="Rectangle 88" width="4" height="4" transform="translate(174 0.123)" fill="#9370db"/>
      <rect id="Rectangle_89-16" data-name="Rectangle 89" width="5" height="4" transform="translate(158 0.123)" fill="#9370db"/>
      <rect id="Rectangle_90-16" data-name="Rectangle 90" width="5" height="4" transform="translate(142 0.123)" fill="#9370db"/>
      <rect id="Rectangle_91-16" data-name="Rectangle 91" width="5" height="4" transform="translate(126 0.123)" fill="#9370db"/>
      <rect id="Rectangle_92-16" data-name="Rectangle 92" width="5" height="4" transform="translate(110 0.123)" fill="#9370db"/>
      <rect id="Rectangle_93-16" data-name="Rectangle 93" width="5" height="4" transform="translate(95 0.123)" fill="#9370db"/>
      <rect id="Rectangle_94-16" data-name="Rectangle 94" width="4" height="4" transform="translate(80 0.123)" fill="#9370db"/>
      <rect id="Rectangle_95-16" data-name="Rectangle 95" width="5" height="4" transform="translate(63 0.123)" fill="#9370db"/>
      <rect id="Rectangle_96-16" data-name="Rectangle 96" width="5" height="4" transform="translate(47 0.123)" fill="#9370db"/>
      <rect id="Rectangle_97-16" data-name="Rectangle 97" width="4" height="4" transform="translate(32 0.123)" fill="#9370db"/>
      <rect id="Rectangle_98-16" data-name="Rectangle 98" width="5" height="4" transform="translate(16 0.123)" fill="#9370db"/>
      <rect id="Rectangle_99-16" data-name="Rectangle 99" width="5" height="4" transform="translate(0 0.123)" fill="#9370db"/>
    </g>
    <g id="Group_101" data-name="Group 101" transform="translate(-4340.13 4514.203)">
      <rect id="Rectangle_86-17" data-name="Rectangle 86" width="5" height="4" transform="translate(205 -0.203)" fill="#9370db"/>
      <rect id="Rectangle_87-17" data-name="Rectangle 87" width="5" height="4" transform="translate(189 -0.203)" fill="#9370db"/>
      <rect id="Rectangle_88-17" data-name="Rectangle 88" width="4" height="4" transform="translate(174 -0.203)" fill="#9370db"/>
      <rect id="Rectangle_89-17" data-name="Rectangle 89" width="5" height="4" transform="translate(158 -0.203)" fill="#9370db"/>
      <rect id="Rectangle_90-17" data-name="Rectangle 90" width="5" height="4" transform="translate(142 -0.203)" fill="#9370db"/>
      <rect id="Rectangle_91-17" data-name="Rectangle 91" width="5" height="4" transform="translate(126 -0.203)" fill="#9370db"/>
      <rect id="Rectangle_92-17" data-name="Rectangle 92" width="5" height="4" transform="translate(110 -0.203)" fill="#9370db"/>
      <rect id="Rectangle_93-17" data-name="Rectangle 93" width="5" height="4" transform="translate(95 -0.203)" fill="#9370db"/>
      <rect id="Rectangle_94-17" data-name="Rectangle 94" width="4" height="4" transform="translate(80 -0.203)" fill="#9370db"/>
      <rect id="Rectangle_95-17" data-name="Rectangle 95" width="5" height="4" transform="translate(63 -0.203)" fill="#9370db"/>
      <rect id="Rectangle_96-17" data-name="Rectangle 96" width="5" height="4" transform="translate(47 -0.203)" fill="#9370db"/>
      <rect id="Rectangle_97-17" data-name="Rectangle 97" width="4" height="4" transform="translate(32 -0.203)" fill="#9370db"/>
      <rect id="Rectangle_98-17" data-name="Rectangle 98" width="5" height="4" transform="translate(16 -0.203)" fill="#9370db"/>
      <rect id="Rectangle_99-17" data-name="Rectangle 99" width="5" height="4" transform="translate(0 -0.203)" fill="#9370db"/>
    </g>
    <g id="Group_102" data-name="Group 102" transform="translate(-4340.13 4578.545)">
      <rect id="Rectangle_86-18" data-name="Rectangle 86" width="5" height="3" transform="translate(205 0.455)" fill="#9370db"/>
      <rect id="Rectangle_87-18" data-name="Rectangle 87" width="5" height="3" transform="translate(189 0.455)" fill="#9370db"/>
      <rect id="Rectangle_88-18" data-name="Rectangle 88" width="4" height="3" transform="translate(174 0.455)" fill="#9370db"/>
      <rect id="Rectangle_89-18" data-name="Rectangle 89" width="5" height="3" transform="translate(158 0.455)" fill="#9370db"/>
      <rect id="Rectangle_90-18" data-name="Rectangle 90" width="5" height="3" transform="translate(142 0.455)" fill="#9370db"/>
      <rect id="Rectangle_91-18" data-name="Rectangle 91" width="5" height="3" transform="translate(126 0.455)" fill="#9370db"/>
      <rect id="Rectangle_92-18" data-name="Rectangle 92" width="5" height="3" transform="translate(110 0.455)" fill="#9370db"/>
      <rect id="Rectangle_93-18" data-name="Rectangle 93" width="5" height="3" transform="translate(95 0.455)" fill="#9370db"/>
      <rect id="Rectangle_94-18" data-name="Rectangle 94" width="4" height="3" transform="translate(80 0.455)" fill="#9370db"/>
      <rect id="Rectangle_95-18" data-name="Rectangle 95" width="5" height="3" transform="translate(63 0.455)" fill="#9370db"/>
      <rect id="Rectangle_96-18" data-name="Rectangle 96" width="5" height="3" transform="translate(47 0.455)" fill="#9370db"/>
      <rect id="Rectangle_97-18" data-name="Rectangle 97" width="4" height="3" transform="translate(32 0.455)" fill="#9370db"/>
      <rect id="Rectangle_98-18" data-name="Rectangle 98" width="5" height="3" transform="translate(16 0.455)" fill="#9370db"/>
      <rect id="Rectangle_99-18" data-name="Rectangle 99" width="5" height="3" transform="translate(0 0.455)" fill="#9370db"/>
    </g>
    <g id="Group_107" data-name="Group 107" transform="translate(-4340.13 4641.674)">
      <rect id="Rectangle_86-19" data-name="Rectangle 86" width="5" height="5" transform="translate(205 0.326)" fill="#9370db"/>
      <rect id="Rectangle_87-19" data-name="Rectangle 87" width="5" height="5" transform="translate(189 0.326)" fill="#9370db"/>
      <rect id="Rectangle_88-19" data-name="Rectangle 88" width="4" height="5" transform="translate(174 0.326)" fill="#9370db"/>
      <rect id="Rectangle_89-19" data-name="Rectangle 89" width="5" height="5" transform="translate(158 0.326)" fill="#9370db"/>
      <rect id="Rectangle_90-19" data-name="Rectangle 90" width="5" height="5" transform="translate(142 0.326)" fill="#9370db"/>
      <rect id="Rectangle_91-19" data-name="Rectangle 91" width="5" height="5" transform="translate(126 0.326)" fill="#9370db"/>
      <rect id="Rectangle_92-19" data-name="Rectangle 92" width="5" height="5" transform="translate(110 0.326)" fill="#9370db"/>
      <rect id="Rectangle_93-19" data-name="Rectangle 93" width="5" height="5" transform="translate(95 0.326)" fill="#9370db"/>
      <rect id="Rectangle_94-19" data-name="Rectangle 94" width="4" height="5" transform="translate(80 0.326)" fill="#9370db"/>
      <rect id="Rectangle_95-19" data-name="Rectangle 95" width="5" height="5" transform="translate(63 0.326)" fill="#9370db"/>
      <rect id="Rectangle_96-19" data-name="Rectangle 96" width="5" height="5" transform="translate(47 0.326)" fill="#9370db"/>
      <rect id="Rectangle_97-19" data-name="Rectangle 97" width="4" height="5" transform="translate(32 0.326)" fill="#9370db"/>
      <rect id="Rectangle_98-19" data-name="Rectangle 98" width="5" height="5" transform="translate(16 0.326)" fill="#9370db"/>
      <rect id="Rectangle_99-19" data-name="Rectangle 99" width="5" height="5" transform="translate(0 0.326)" fill="#9370db"/>
    </g>
    <g id="Group_112" data-name="Group 112" transform="translate(-4340.13 4706.017)">
      <rect id="Rectangle_86-20" data-name="Rectangle 86" width="5" height="5" transform="translate(205 -0.017)" fill="#9370db"/>
      <rect id="Rectangle_87-20" data-name="Rectangle 87" width="5" height="5" transform="translate(189 -0.017)" fill="#9370db"/>
      <rect id="Rectangle_88-20" data-name="Rectangle 88" width="4" height="5" transform="translate(174 -0.017)" fill="#9370db"/>
      <rect id="Rectangle_89-20" data-name="Rectangle 89" width="5" height="5" transform="translate(158 -0.017)" fill="#9370db"/>
      <rect id="Rectangle_90-20" data-name="Rectangle 90" width="5" height="5" transform="translate(142 -0.017)" fill="#9370db"/>
      <rect id="Rectangle_91-20" data-name="Rectangle 91" width="5" height="5" transform="translate(126 -0.017)" fill="#9370db"/>
      <rect id="Rectangle_92-20" data-name="Rectangle 92" width="5" height="5" transform="translate(110 -0.017)" fill="#9370db"/>
      <rect id="Rectangle_93-20" data-name="Rectangle 93" width="5" height="5" transform="translate(95 -0.017)" fill="#9370db"/>
      <rect id="Rectangle_94-20" data-name="Rectangle 94" width="4" height="5" transform="translate(80 -0.017)" fill="#9370db"/>
      <rect id="Rectangle_95-20" data-name="Rectangle 95" width="5" height="5" transform="translate(63 -0.017)" fill="#9370db"/>
      <rect id="Rectangle_96-20" data-name="Rectangle 96" width="5" height="5" transform="translate(47 -0.017)" fill="#9370db"/>
      <rect id="Rectangle_97-20" data-name="Rectangle 97" width="4" height="5" transform="translate(32 -0.017)" fill="#9370db"/>
      <rect id="Rectangle_98-20" data-name="Rectangle 98" width="5" height="5" transform="translate(16 -0.017)" fill="#9370db"/>
      <rect id="Rectangle_99-20" data-name="Rectangle 99" width="5" height="5" transform="translate(0 -0.017)" fill="#9370db"/>
    </g>
  </g>
</svg>
