<svg xmlns="http://www.w3.org/2000/svg" width="173" height="97.346" viewBox="0 0 173 97.346">
  <g id="Group_394" data-name="Group 394" transform="translate(-91 -58.654)">
    <g id="Group_50" data-name="Group 50" transform="translate(91 74.819)">
      <text id="Busayo" transform="translate(0 49.181)" fill="#d4cece" font-size="65" font-family="JosefinSans-Bold, Josefin Sans" font-weight="700" letter-spacing="-0.145em"><tspan x="0" y="0">Busayo</tspan></text>
    </g>
    <g id="Path_137" data-name="Path 137" transform="translate(128.216 58.654)" fill="none">
      <path d="M48.673,0A48.673,48.673,0,1,1,0,48.673,48.673,48.673,0,0,1,48.673,0Z" stroke="none"/>
      <path d="M 48.67279052734375 14.99998474121094 C 30.10553741455078 14.99998474121094 14.99998474121094 30.10553741455078 14.99998474121094 48.67279052734375 C 14.99998474121094 67.24001312255859 30.10553741455078 82.34556579589844 48.67279052734375 82.34556579589844 C 67.24001312255859 82.34556579589844 82.34556579589844 67.24001312255859 82.34556579589844 48.67279052734375 C 82.34556579589844 30.10553741455078 67.24001312255859 14.99998474121094 48.67279052734375 14.99998474121094 M 48.67279052734375 -1.52587890625e-05 C 75.55403900146484 -1.52587890625e-05 97.34556579589844 21.79154205322266 97.34556579589844 48.67279052734375 C 97.34556579589844 75.55403900146484 75.55403900146484 97.34556579589844 48.67279052734375 97.34556579589844 C 21.79154205322266 97.34556579589844 -1.52587890625e-05 75.55403900146484 -1.52587890625e-05 48.67279052734375 C -1.52587890625e-05 21.79154205322266 21.79154205322266 -1.52587890625e-05 48.67279052734375 -1.52587890625e-05 Z" stroke="none" fill="rgba(147,112,219,0.2)"/>
    </g>
  </g>
</svg>
