<svg xmlns="http://www.w3.org/2000/svg" width="573.87" height="450.921" viewBox="0 0 573.87 450.921">
  <g id="Group_409" data-name="Group 409" transform="translate(-639.788 -2191)">
    <g id="Layer_2" data-name="Layer 2" transform="translate(639.785 2182)">
      <g id="Layer_2-2" data-name="Layer 2" transform="translate(0.003 10)">
        <ellipse id="Ellipse_72" data-name="Ellipse 72" cx="48.636" cy="10.751" rx="48.636" ry="10.751" transform="translate(207.249 348.263)"/>
        <line id="Line_48" data-name="Line 48" x1="27.32" y2="85.504" transform="translate(228.565 359.013)" fill="none" stroke="#000" stroke-linecap="round" stroke-miterlimit="10" stroke-width="4"/>
        <line id="Line_49" data-name="Line 49" x2="27.32" y2="85.504" transform="translate(255.885 359.013)" fill="none" stroke="#000" stroke-linecap="round" stroke-miterlimit="10" stroke-width="4"/>
        <line id="Line_50" data-name="Line 50" y1="19.528" x2="30.456" transform="translate(237.535 396.914)" fill="none" stroke="#000" stroke-linecap="round" stroke-miterlimit="10" stroke-width="2"/>
        <line id="Line_51" data-name="Line 51" x2="30.464" y2="19.528" transform="translate(243.654 396.914)" fill="none" stroke="#000" stroke-linecap="round" stroke-miterlimit="10" stroke-width="2"/>
        <path id="Path_159" data-name="Path 159" d="M393.944,356.86c-.123,3.792-.069,17.07-.694,22.75" transform="translate(-90.194 -90.402)" fill="none" stroke="#1f161e" stroke-linecap="round" stroke-miterlimit="10" stroke-width="1"/>
        <rect id="Rectangle_185" data-name="Rectangle 185" width="9.756" height="26.595" rx="4.878" transform="translate(137.528 93.656)"/>
        <circle id="Ellipse_73" data-name="Ellipse 73" cx="9.787" cy="9.787" r="9.787" transform="translate(132.619 128.982)" fill="#fbdc8e"/>
        <path id="Path_160" data-name="Path 160" d="M603.327,330.711h4.624a1.842,1.842,0,0,0,1.834-1.834V300.456a1.811,1.811,0,0,0-.539-1.295l-5.841-5.841a1.826,1.826,0,0,0-1.295-.539H584.854a1.842,1.842,0,0,0-1.834,1.834v2.743" transform="translate(-133.718 -75.705)" fill="#fbdc8e"/>
        <path id="Path_161" data-name="Path 161" d="M79.814,429.97c14.642,2.774,12.03,90.166-16.076,84.879C37.2,509.809,61.951,426.571,79.814,429.97Z" transform="translate(-11.953 -107.146)"/>
        <path id="Path_162" data-name="Path 162" d="M3.576,443.853c11.652-6.6,60.427,54.778,38.116,67.4C20.615,523.23-10.611,451.9,3.576,443.853Z" transform="translate(-0.003 -110.24)" fill="#fbdc8e"/>
        <path id="Path_163" data-name="Path 163" d="M70.394,582.113H40.97a4.817,4.817,0,0,1-4.786-4.285L32.47,544.475a4.824,4.824,0,0,1,4.786-5.395h36.7a4.817,4.817,0,0,1,4.786,5.333l-3.553,33.354A4.824,4.824,0,0,1,70.394,582.113Z" transform="translate(-7.441 -132.194)" fill="#969696"/>
        <path id="Path_164" data-name="Path 164" d="M90.976,385.787c11.151,3.237,2.6,70.692-18.75,64.48C52.065,444.41,77.4,381.841,90.976,385.787Z" transform="translate(-14.845 -96.995)" fill="#ab8de5"/>
        <path id="Path_165" data-name="Path 165" d="M110.381,455.167c7.706,6.643-23.644,57.46-38.455,44.7C57.938,487.866,100.971,447.091,110.381,455.167Z" transform="translate(-15.862 -112.708)" fill="#fbdc8e"/>
        <path id="Path_166" data-name="Path 166" d="M57.009,394.94c16.692,0,31.974,106.581,0,106.581C26.815,501.521,36.687,394.94,57.009,394.94Z" transform="translate(-8.692 -99.135)" fill="#eb9ab7"/>
        <rect id="Rectangle_186" data-name="Rectangle 186" width="64.966" height="11.93" rx="4.05" transform="translate(15.766 399.673)" fill="#d8d8d8"/>
        <path id="Path_167" data-name="Path 167" d="M593.63,298.72H576.675a2.065,2.065,0,0,0-2.065,2.073v33.754a2.073,2.073,0,0,0,2.065,2.073h22.649a2.073,2.073,0,0,0,2.065-2.073V306.5a2.065,2.065,0,0,0-.6-1.464l-5.7-5.7A2.065,2.065,0,0,0,593.63,298.72Z" transform="translate(-131.789 -77.067)" fill="#d8d8d8"/>
        <path id="Path_168" data-name="Path 168" d="M607.313,305.687h-5.757a1.156,1.156,0,0,1-1.156-1.156V298.72" transform="translate(-137.704 -77.067)" fill="#969696"/>
        <path id="Path_169" data-name="Path 169" d="M615.72,299.754h-5.757a1.171,1.171,0,0,1-1.164-1.164V292.78" transform="translate(-139.631 -75.705)" fill="#64ccc4"/>
        <path id="Path_170" data-name="Path 170" d="M552.607,266.23h0Z" transform="translate(-124.289 -69.616)" fill="#ea99b6"/>
        <path id="Path_172" data-name="Path 172" d="M565.76,254.75h0Z" transform="translate(-127.702 -66.983)" fill="#fff"/>
        <rect id="Rectangle_188" data-name="Rectangle 188" width="30.163" height="19.852" rx="2.65" transform="translate(391.388 145.667)" fill="#d8d8d8"/>
        <line id="Line_52" data-name="Line 52" x2="14.134" y2="9.302" transform="translate(392.336 146.291)" fill="none" stroke="#969696" stroke-linecap="round" stroke-linejoin="round" stroke-width="0.82"/>
        <line id="Line_53" data-name="Line 53" x1="15.082" y2="9.926" transform="translate(406.469 145.667)" fill="none" stroke="#969696" stroke-linecap="round" stroke-linejoin="round" stroke-width="0.82"/>
        <circle id="Ellipse_75" data-name="Ellipse 75" cx="4.316" cy="4.316" r="4.316" transform="translate(417.235 141.351)" fill="#fbdc8e"/>
        <text id="_1" data-name="1" transform="translate(420.303 145.166)" fill="#fff" font-size="4" font-family="SegoeUI-Bold, Segoe UI" font-weight="700"><tspan x="0" y="0">1</tspan></text>
        <rect id="Rectangle_189" data-name="Rectangle 189" width="114.411" height="2.481" rx="1.23" transform="translate(459.459 157.774)" fill="#d8d8d8"/>
        <rect id="Rectangle_190" data-name="Rectangle 190" width="10.781" height="49.275" rx="2.56" transform="translate(499.125 108.498)" fill="#969696"/>
        <rect id="Rectangle_191" data-name="Rectangle 191" width="5.395" height="37.723" rx="2.13" transform="translate(509.906 120.05)" fill="#d8d8d8"/>
        <rect id="Rectangle_192" data-name="Rectangle 192" width="5.395" height="37.723" rx="2.06" transform="translate(515.3 120.05)" fill="#969696"/>
        <rect id="Rectangle_193" data-name="Rectangle 193" width="5.395" height="37.723" rx="2.2" transform="translate(519.657 124.295) rotate(-24.66)" fill="#d8d8d8"/>
        <circle id="Ellipse_76" data-name="Ellipse 76" cx="3.013" cy="3.013" r="3.013" transform="translate(501.498 139.278)" fill="#d8d8d8"/>
        <rect id="Rectangle_194" data-name="Rectangle 194" width="6.905" height="1.449" rx="0.724" transform="translate(501.059 147.108)" fill="#d8d8d8"/>
        <rect id="Rectangle_195" data-name="Rectangle 195" width="6.905" height="1.449" rx="0.724" transform="translate(501.059 150.815)" fill="#d8d8d8"/>
        <rect id="Rectangle_196" data-name="Rectangle 196" width="6.905" height="1.449" rx="0.724" transform="translate(445.85 225.136)" fill="#969696"/>
        <rect id="Rectangle_197" data-name="Rectangle 197" width="6.905" height="1.449" rx="0.724" transform="translate(445.85 228.619)" fill="#969696"/>
        <rect id="Rectangle_198" data-name="Rectangle 198" width="21.37" height="1.449" rx="0.724" transform="translate(445.534 234.576)" fill="#969696"/>
        <rect id="Rectangle_199" data-name="Rectangle 199" width="21.37" height="1.449" rx="0.724" transform="translate(445.534 237.998)" fill="#969696"/>
        <rect id="Rectangle_200" data-name="Rectangle 200" width="21.37" height="1.449" rx="0.724" transform="translate(445.534 241.42)" fill="#969696"/>
        <rect id="Rectangle_201" data-name="Rectangle 201" width="1.125" height="27.451" rx="0.563" transform="translate(512.041 125.183)" fill="#969696"/>
        <rect id="Rectangle_202" data-name="Rectangle 202" width="8.662" height="3.838" rx="1.919" transform="translate(482.756 159.014)" fill="#d8d8d8"/>
        <rect id="Rectangle_203" data-name="Rectangle 203" width="8.662" height="3.838" rx="1.919" transform="translate(541.911 159.014)" fill="#d8d8d8"/>
        <path id="Path_173" data-name="Path 173" d="M176.006,152.88a29.508,29.508,0,0,0-29.516,29.508h59.032a29.508,29.508,0,0,0-29.516-29.508Z" transform="translate(-33.6 -43.619)" fill="#ab8de5"/>
        <line id="Line_54" data-name="Line 54" y1="107.059" transform="translate(142.406)" fill="none" stroke="#fff" stroke-linecap="round" stroke-linejoin="round" stroke-width="2"/>
        <path id="Path_174" data-name="Path 174" d="M485.11,574.68c0,1.826-1.071,13.348,1.063,14.411s25.6,1.711,26.664.64,1.7-3.306.771-3.946-10.018-2.451-11.251-3.306-2.936-5.395-2.312-7.8" transform="translate(-111.201 -140.359)" fill="#1f161e"/>
        <path id="Path_175" data-name="Path 175" d="M360.474,350.73l13.209-4.739c-.57-24.1-6.2-77.943-14.2-85.951-1.88-1.873-39.072-5.14-45.707-5.14-39.6,0-51.341,4.516-54.323,7.506-9.248,9.248-12.13,52.1-12.13,67.1s42.386,22.788,42.386,22.788l49.684,3.414s10.9,1.125,20.322,1.68C359.92,354.5,360.474,350.73,360.474,350.73Z" transform="translate(-56.725 -67.017)" fill="#78e5e1"/>
        <path id="Path_176" data-name="Path 176" d="M445.22,396.444c3.614-1.071,39.557-6.936,47.387.771s32.475,118.194,32.475,120.738H505.238L478.45,460.3" transform="translate(-102.113 -98.76)" fill="#3f373e"/>
        <path id="Path_177" data-name="Path 177" d="M273.529,384.4c-.9,4.508-6.319,9.348-6.319,33.909,0,33.963,27.82,34.679,37.808,34.679,31.119,0,81.465-9.248,84.864-10.943,2.258,3.776,43.819,88.625,44.012,90.521h19.135s-11.86-126.941-33.261-141.337C412.816,386.6,289.489,381.652,273.529,384.4Z" transform="translate(-61.287 -96.537)" fill="#55b79d"/>
        <path id="Path_178" data-name="Path 178" d="M414.519,352.41c-5.025,0-9.171,1.194-20.546,3.429L393.38,377.6c10.789-4.346,13.294-10.388,16.423-10.388,7.814,0,11.9,4.031,16.515,4.031,3.221,0,9.017-2.528,9.017-5.965C435.334,358.082,420.746,352.41,414.519,352.41Z" transform="translate(-90.224 -89.381)" fill="#8a5a46"/>
        <path id="Path_179" data-name="Path 179" d="M524.48,553.07c0,1.834-1.071,13.348,1.063,14.419s25.6,1.7,26.664.64,1.7-3.306.771-3.946-10.018-2.458-11.251-3.314-2.936-5.395-2.312-7.8" transform="translate(-120.23 -135.403)" fill="#1f161e"/>
        <path id="Path_180" data-name="Path 180" d="M337.62,254.518c0,2.905-16.87,2.99-16.87,0V230.89h16.87Z" transform="translate(-73.566 -61.51)" fill="#8a5a46"/>
        <path id="Path_181" data-name="Path 181" d="M332.125,239.2c-1.541,0-11.375,4.346-11.375,6.774V233.15C323.2,233.15,332.125,239.2,332.125,239.2Z" transform="translate(-73.566 -62.029)" fill="#1f161e"/>
        <circle id="Ellipse_77" data-name="Ellipse 77" cx="20.422" cy="20.422" r="20.422" transform="translate(241.396 137.328)" fill="#8a5a46"/>
        <circle id="Ellipse_78" data-name="Ellipse 78" cx="4.354" cy="4.354" r="4.354" transform="translate(242.09 156.094)" fill="#f8cdba"/>
        <ellipse id="Ellipse_79" data-name="Ellipse 79" cx="3.375" cy="1.757" rx="3.375" ry="1.757" transform="translate(279.066 157.982)" fill="#fa9e9f"/>
        <ellipse id="Ellipse_80" data-name="Ellipse 80" cx="3.375" cy="1.757" rx="3.375" ry="1.757" transform="translate(257.834 157.982)" fill="#fa9e9f"/>
        <path id="Path_183" data-name="Path 183" d="M355.8,213.65c.632.9,3.853,4.686.455,6.219" transform="translate(-81.605 -57.556)" fill="none" stroke="#1f161e" stroke-linecap="round" stroke-miterlimit="10" stroke-width="1"/>
        <path id="Path_184" data-name="Path 184" d="M346.546,226.737c-1.017,0-2.582-1.264-3.406-2.4" transform="translate(-78.701 -60.008)" fill="none" stroke="#1f161e" stroke-linecap="round" stroke-miterlimit="10" stroke-width="1"/>
        <path id="Path_185" data-name="Path 185" d="M382.5,298.62c1.541,3.275,8.978,34.872,8.978,44.883" transform="translate(-87.729 -77.044)" fill="none" stroke="#1f161e" stroke-linecap="round" stroke-miterlimit="10" stroke-width="1"/>
        <path id="Path_186" data-name="Path 186" d="M247.32,348.41c0,35.519.331,45.823,14.588,45.823,32.861,0,82.537-26.973,91.391-26.973,7.822,0,11.907,4.038,16.523,4.038,3.214,0,9.009-2.535,9.009-5.965,0-7.206-14.588-12.878-20.808-12.878-14,0-69.883,13.5-71.247,13.5s-3.661-.593-3.661-2.89c0-4.169,2.728-13.8,3.083-14.642Z" transform="translate(-56.725 -88.464)" fill="#8a5a46"/>
        <path id="Path_187" data-name="Path 187" d="M305.707,308.21c-.94,2.7-8.269,30.656-9.117,34.063" transform="translate(-68.025 -79.244)" fill="none" stroke="#1f161e" stroke-linecap="round" stroke-miterlimit="10" stroke-width="1"/>
        <rect id="Rectangle_208" data-name="Rectangle 208" width="7.891" height="163.069" rx="3.946" transform="matrix(-0.967, 0.254, -0.254, -0.967, 524.555, 446.97)" fill="#969696"/>
        <rect id="Rectangle_209" data-name="Rectangle 209" width="7.891" height="163.069" rx="3.946" transform="matrix(0.967, 0.254, -0.254, 0.967, 469.438, 289.264)" fill="#969696"/>
        <rect id="Rectangle_210" data-name="Rectangle 210" width="7.891" height="163.069" rx="3.946" transform="matrix(0.967, 0.254, -0.254, 0.967, 414.993, 289.263)" fill="#d8d8d8"/>
        <rect id="Rectangle_211" data-name="Rectangle 211" width="7.905" height="163.346" rx="3.952" transform="translate(469.425 444.246) rotate(165.548)" fill="#d8d8d8"/>
        <rect id="Rectangle_212" data-name="Rectangle 212" width="7.891" height="163.069" rx="3.946" transform="matrix(0.967, 0.254, -0.254, 0.967, 192.722, 289.268)" fill="#969696"/>
        <rect id="Rectangle_213" data-name="Rectangle 213" width="7.891" height="163.069" rx="3.946" transform="matrix(-0.967, 0.254, -0.254, -0.967, 247.166, 446.981)" fill="#969696"/>
        <rect id="Rectangle_214" data-name="Rectangle 214" width="388.585" height="11.675" rx="4.53" transform="translate(115.264 282.858)" fill="#d8d8d8"/>
        <rect id="Rectangle_215" data-name="Rectangle 215" width="7.891" height="163.069" rx="3.946" transform="matrix(0.967, 0.254, -0.254, 0.967, 136.33, 289.271)" fill="#d8d8d8"/>
        <rect id="Rectangle_216" data-name="Rectangle 216" width="7.891" height="163.069" rx="3.946" transform="matrix(-0.967, 0.254, -0.254, -0.967, 190.774, 446.982)" fill="#d8d8d8"/>
        <path id="Path_188" data-name="Path 188" d="M499.063,363.821H427.77l12.916-44.42a5.186,5.186,0,0,1,4.994-3.691h60.5a5.1,5.1,0,0,1,4.994,6.481Z" transform="translate(-98.111 -80.964)" fill="#fff"/>
        <circle id="Ellipse_81" data-name="Ellipse 81" cx="4.362" cy="4.362" r="4.362" transform="translate(369.694 254.436)" fill="#fff"/>
        <rect id="Rectangle_217" data-name="Rectangle 217" width="50.023" height="3.121" transform="translate(288.105 279.737)" fill="#fafafa"/>
      </g>
    </g>
    <g id="Group_404" data-name="Group 404" transform="translate(-432 257)">
      <path id="Subtraction_10" data-name="Subtraction 10" d="M59,24H8.813L0,16.347V0H59V24Z" transform="translate(1423 2122)" fill="#eb9ab7"/>
      <text id="HTML" transform="translate(1453 2136)" fill="#fff" font-size="8" font-family="JosefinSans-SemiBold, Josefin Sans" font-weight="600" letter-spacing="-0.05em"><tspan x="-11.16" y="0">HTML</tspan></text>
      <path id="Polygon_1" data-name="Polygon 1" d="M6.3,0l6.3,9.446H0Z" transform="translate(1429.358 2130.998) rotate(42)" fill="#f6c4d6"/>
    </g>
    <path id="Path_196" data-name="Path 196" d="M76.666,0C87.023,0,93.484,6.144,93.484,14.019c0,6.548-1.686,10.253-3.662,11.191-1.25-6.358-3.968-9.3-6.219-10.565-1.742,1.265-4.743,4.33-8.743,5.275s-14.414.762-22.827,6.54C49.29,24.1,46.54,21.024,46.54,17.4S48.234,9.239,58.2,6.617C64.777,4.886,65.688,0,76.666,0Z" transform="translate(831.057 2320.125)" fill="#9b774e"/>
    <g id="Group_405" data-name="Group 405" transform="translate(-538 152)">
      <path id="Subtraction_10-2" data-name="Subtraction 10" d="M59,24H8.813L0,16.347V0H59V24Z" transform="translate(1423 2122)" fill="#9370db"/>
      <text id="CSS3" transform="translate(1453 2136)" fill="#fff" font-size="8" font-family="JosefinSans-SemiBold, Josefin Sans" font-weight="600" letter-spacing="-0.05em"><tspan x="-8.936" y="0">CSS3</tspan></text>
      <path id="Polygon_1-2" data-name="Polygon 1" d="M6.3,0l6.3,9.446H0Z" transform="translate(1429.358 2129.998) rotate(42)" fill="#a17ced"/>
    </g>
    <g id="Group_406" data-name="Group 406" transform="translate(-528 468)">
      <path id="Subtraction_10-3" data-name="Subtraction 10" d="M59,24H8.813L0,16.347V0H59V24Z" transform="translate(1423 2122)" fill="#fbdc8e"/>
      <text id="javaScript_" data-name="javaScript
" transform="translate(1453 2136)" fill="#050505" font-size="8" font-family="JosefinSans-SemiBold, Josefin Sans" font-weight="600" letter-spacing="-0.05em"><tspan x="-16.772" y="0">javaScript</tspan><tspan x="0" y="17"></tspan></text>
      <path id="Path_207" data-name="Path 207" d="M6.3,0l6.3,9.446H0Z" transform="translate(1429.358 2130.998) rotate(42)" fill="#fbf0d3"/>
    </g>
    <g id="Group_407" data-name="Group 407" transform="translate(-694 295)">
      <path id="Subtraction_10-4" data-name="Subtraction 10" d="M59,24H8.813L0,16.347V0H59V24Z" transform="translate(1423 2122)" fill="#d8d8d8"/>
      <text id="UX_" data-name="UX

" transform="translate(1453 2138)" fill="#050505" font-size="11" font-family="JosefinSans-SemiBold, Josefin Sans" font-weight="600" letter-spacing="-0.05em"><tspan x="-7.617" y="0">UX</tspan><tspan x="0" y="24"></tspan><tspan x="0" y="48"></tspan></text>
      <path id="Path_208" data-name="Path 208" d="M6.3,0l6.3,9.446H0Z" transform="translate(1429.358 2130.998) rotate(42)" fill="#f2eaea"/>
    </g>
  </g>
</svg>
