<svg xmlns="http://www.w3.org/2000/svg" width="61.48" height="61.534" viewBox="0 0 61.48 61.534">
  <path id="watercolor" d="M85.19,80.3c0,3.1-4.215,5.1-10.737,5.1-.451,0-.968-.006-1.533-.016a1.341,1.341,0,1,1,.022-2.682h.025c.545.009,1.045.015,1.483.015,5.622,0,8.054-1.6,8.054-2.418,0-.392-.619-1.081-1.978-1.665A20.19,20.19,0,0,0,72.641,77.4c-5.768,0-8.775-.782-10.055-2.616-1.207-1.728-.466-3.744.188-5.522,1-2.734,1.193-3.867-.825-4.936a1.341,1.341,0,1,1,1.254-2.37c4.281,2.265,2.962,5.856,2.088,8.232-.468,1.275-.912,2.48-.506,3.065.383.549,1.912,1.468,7.855,1.468a23.458,23.458,0,0,1,8.945,1.449c3.137,1.343,3.6,3.162,3.6,4.127Zm-16.72,2.272-.83-.031a1.342,1.342,0,0,0-.1,2.682l.833.031h.048a1.341,1.341,0,0,0,.048-2.682Zm-5.831-.241c-1.936-.089-3.284-.157-3.354-.159q-.563,0-1.054-.005c2.043-.94,2.283-2.074,2.108-2.878-.224-1.028-.818-3.762-19.223-3.029a1.342,1.342,0,0,0,.107,2.682c10.247-.408,14.3.342,15.8.83l-.125.052c-.1.034-.316.092-.595.168-2.716.74-4.861,1.324-4.637,3,.2,1.494,1.686,1.861,7.5,1.861h.041s1.354.069,3.3.158h.062a1.341,1.341,0,0,0,.061-2.682ZM37.012,77.639A1.341,1.341,0,0,1,35.675,78.9H35.59c-10.125-.637-11.549-4.328-11.695-5.881-.238-2.606,2.227-5.011,6.131-5.988a9.831,9.831,0,0,0,1.28-.4c-.311-.234-.713-.494-1-.68-1.264-.82-2.57-1.668-2.438-3.036a2.37,2.37,0,0,1,1.737-1.894c1.821-.73,5.127-1.175,9.8-1.331a8.609,8.609,0,0,1,1.953-5.878,6.715,6.715,0,0,1,1.133-1.073,9.972,9.972,0,0,1,9.091-1.392l10-11.021a1.342,1.342,0,0,1,1.986,1.8l-5.512,6.075,2.957,2.957L81.561,32.518A3.439,3.439,0,1,0,76.7,27.659l-6.09,6.711a1.341,1.341,0,0,1-1.986-1.8l6.09-6.712A6.122,6.122,0,1,1,83.365,34.5L57.871,57.636a10.185,10.185,0,0,1,.383,5.07,9.266,9.266,0,0,1-4.02,6.177c-2.621,1.728-6.372,2.206-9.721,2.206a42.307,42.307,0,0,1-7.664-.73,1.341,1.341,0,0,1-.526-2.4L38.187,66.6a4.209,4.209,0,0,0,1.6-4.243,38.753,38.753,0,0,0-8.606.953c.206.141.418.278.587.388,1.333.865,2.844,1.845,2.586,3.39-.248,1.489-2,2.119-3.679,2.538-2.795.7-4.2,2.14-4.112,3.142s2.129,3.007,9.188,3.449a1.34,1.34,0,0,1,1.261,1.422ZM54.075,52.594a9.912,9.912,0,0,1,2.376,2.3c.061.084.112.174.17.259l2.41-2.187-2.773-2.773Zm-13.6,15.584c3.5.375,9.11.558,12.283-1.533a6.617,6.617,0,0,0,2.857-4.413,7.529,7.529,0,0,0-1.334-5.755,7.31,7.31,0,0,0-10.2-1.576,3.99,3.99,0,0,0-.674.647,6.162,6.162,0,0,0-1.15,5.381c.687,2.965.056,5.5-1.778,7.248Zm25.59-29.455a1.339,1.339,0,0,0,1-.44l.484-.536a1.341,1.341,0,1,0-1.986-1.8l-.485.536a1.341,1.341,0,0,0,1,2.242ZM44.113,60.635a1.391,1.391,0,0,0,.194.014,1.343,1.343,0,0,0,1.327-1.15c.038-.264.451-2.577,3.413-2.285a1.341,1.341,0,1,0,.266-2.669,5.463,5.463,0,0,0-6.334,4.569A1.341,1.341,0,0,0,44.113,60.635Z" transform="translate(-23.879 -23.861)" fill="rgba(231,134,169,0.83)"/>
</svg>
